<?xml version="1.0" encoding="UTF-8"?>
<!DOCTYPE svg PUBLIC "-//W3C//DTD SVG 1.1//EN" "http://www.w3.org/Graphics/SVG/1.1/DTD/svg11.dtd">
<!-- Creator: CorelDRAW 2018 (64 Bit) -->
<svg xmlns="http://www.w3.org/2000/svg" xml:space="preserve" width="45px" height="40px" version="1.1" style="shape-rendering:geometricPrecision; text-rendering:geometricPrecision; image-rendering:optimizeQuality; fill-rule:evenodd; clip-rule:evenodd"
viewBox="0 0 450000 400000"
 xmlns:xlink="http://www.w3.org/1999/xlink">
 <defs>
  <style type="text/css">
   <![CDATA[
    .fil0 {fill:white;fill-rule:nonzero}
   ]]>
  </style>
 </defs>
 <g id="Capa_x0020_1">
  <metadata id="CorelCorpID_0Corel-Layer"/>
  <path class="fil0" d="M359780 350330c0,16090 -27740,43220 -66650,43220 -38850,0 -54190,-28810 -54190,-44700l0 -73850c0,-8150 670,-13740 15750,-19590 38780,-15220 55340,-53460 55340,-84160 0,-30700 -29420,-81590 -85030,-81590 -55610,0 -85030,50890 -85030,81590 0,30700 16560,68940 55340,84160 15080,5850 15750,11440 15750,19590l0 73850c0,15890 -15340,44700 -54190,44700 -38910,0 -66650,-27130 -66650,-43220 0,-7000 5790,-15490 15150,-15490 9290,0 12790,5860 14340,7750 1550,1950 13530,21880 35680,21880 22150,0 25920,-16430 25920,-26120l0 -42960c0,-6590 -4650,-12450 -16090,-17300 -11510,-4840 -59650,-36690 -59650,-105490 0,-68740 59850,-117210 119430,-117210 59580,0 119430,48470 119430,117210 0,68800 -48140,100650 -59650,105490 -11440,4850 -16090,10710 -16090,17300l0 42960c0,9690 3770,26120 25920,26120 22150,0 34130,-19930 35680,-21880 1550,-1890 5050,-7750 14340,-7750 9360,0 15150,8490 15150,15490zm48740 -98830l0 0c8820,0 15960,7140 15960,15960 0,8820 -7140,15950 -15960,15950 -8820,0 -15950,-7130 -15950,-15950 0,-8820 7130,-15960 15950,-15960zm-367040 0l0 0c-8820,0 -15960,7140 -15960,15960 0,8820 7140,15950 15960,15950 8820,0 15950,-7130 15950,-15950 0,-8820 -7130,-15960 -15950,-15960zm183520 -245060l0 0c8820,0 15960,7140 15960,15960 0,8750 -7140,15950 -15960,15950 -8820,0 -15950,-7200 -15950,-15950 0,-8820 7130,-15960 15950,-15960zm117410 67530l0 0c-8140,0 -15080,6730 -15080,12250 0,5590 1620,12190 11710,18650 8490,5390 38180,23700 55280,43290 7800,8960 11710,17500 11710,26730 0,9150 -3910,17700 -11710,26730 -17100,19590 -46790,37830 -55280,43280 -10090,6470 -11710,13070 -11710,18580 0,5590 6940,12260 15080,12260 8210,0 13000,-2970 20940,-9430 13660,-11040 40590,-33120 59310,-54870 11170,-13060 19050,-25180 19050,-36550 0,-11380 -7880,-23500 -19050,-36560 -18720,-21810 -45650,-43830 -59310,-54930 -7940,-6470 -12730,-9430 -20940,-9430zm-234820 0l0 0c8150,0 15080,6730 15080,12250 0,5590 -1620,12190 -11710,18650 -8490,5390 -38180,23700 -55280,43290 -7800,8960 -11710,17500 -11710,26730 0,9150 3910,17700 11710,26730 17100,19590 46790,37830 55280,43280 10090,6470 11710,13070 11710,18580 0,5590 -6930,12260 -15080,12260 -8210,0 -13000,-2970 -20940,-9430 -13660,-11040 -40590,-33120 -59310,-54870 -11170,-13060 -19050,-25180 -19050,-36550 0,-11380 7880,-23500 19050,-36560 18720,-21810 45650,-43830 59310,-54930 7940,-6470 12730,-9430 20940,-9430zm117410 56420l0 0c-24570,0 -44500,19920 -44500,44500 0,24570 19930,44500 44500,44500 24570,0 44500,-19930 44500,-44500 0,-24580 -19930,-44500 -44500,-44500z"/>
 </g>
</svg>
