<?xml version="1.0" encoding="UTF-8"?>
<!DOCTYPE svg PUBLIC "-//W3C//DTD SVG 1.1//EN" "http://www.w3.org/Graphics/SVG/1.1/DTD/svg11.dtd">
<!-- Creator: CorelDRAW 2018 (64 Bit) -->
<svg xmlns="http://www.w3.org/2000/svg" xml:space="preserve" width="93px" height="83px" version="1.1" shape-rendering="geometricPrecision" text-rendering="geometricPrecision" image-rendering="optimizeQuality" fill-rule="evenodd" clip-rule="evenodd"
viewBox="0 0 930000 830600"
 xmlns:xlink="http://www.w3.org/1999/xlink">
 <g id="Capa_x0020_1">
  <metadata id="CorelCorpID_0Corel-Layer"/>
  <path fill="#FFFC52" fill-rule="nonzero" d="M754200 737900c0,34500 -59500,92700 -143000,92700 -83400,0 -116300,-61800 -116300,-95900l0 -158400c0,-17500 1500,-29500 33800,-42100 83200,-32600 118700,-114700 118700,-180500 0,-65900 -63100,-175100 -182400,-175100 -119300,0 -182500,109200 -182500,175100 0,65800 35600,147900 118800,180500 32300,12600 33800,24600 33800,42100l0 158400c0,34100 -33000,95900 -116300,95900 -83500,0 -143000,-58200 -143000,-92700 0,-15100 12400,-33200 32500,-33200 19900,0 27500,12500 30800,16600 3300,4100 29000,46900 76500,46900 47500,0 55600,-35200 55600,-56000l0 -92200c0,-14200 -9900,-26800 -34500,-37100 -24700,-10400 -128000,-78800 -128000,-226400 0,-147500 128400,-251500 256300,-251500 127800,0 256200,104000 256200,251500 0,147600 -103300,216000 -128000,226400 -24500,10300 -34500,22900 -34500,37100l0 92200c0,20700 8100,56000 55600,56000 47500,0 73200,-42800 76600,-46900 3300,-4100 10800,-16600 30700,-16600 20100,0 32600,18200 32600,33200zm104600 -212100c18900,0 34200,15300 34200,34300 0,18900 -15300,34200 -34200,34200 -19000,0 -34300,-15300 -34300,-34200 0,-19000 15300,-34300 34300,-34300zm-787600 0c-18900,0 -34200,15300 -34200,34300 0,18900 15300,34200 34200,34200 19000,0 34300,-15300 34300,-34200 0,-19000 -15300,-34300 -34300,-34300zm393800 -525800c18900,0 34200,15300 34200,34200 0,18800 -15300,34300 -34200,34300 -18900,0 -34200,-15500 -34200,-34300 0,-18900 15300,-34200 34200,-34200zm251900 144900c-17500,0 -32300,14400 -32300,26300 0,12000 3400,26200 25100,40000 18200,11600 81900,50800 118600,92900 16800,19200 25100,37500 25100,57300 0,19700 -8300,38100 -25100,57400 -36600,42100 -100400,81200 -118600,92900 -21600,13900 -25100,28000 -25100,39800 0,12000 14800,26300 32300,26300 17600,0 27900,-6400 45000,-20200 29200,-23700 87100,-71000 127200,-117700 24000,-28000 40900,-54000 40900,-78500 0,-24400 -16900,-50400 -40900,-78400 -40100,-46800 -97900,-94000 -127200,-117900 -17100,-13800 -27400,-20200 -45000,-20200zm-503800 0c17500,0 32300,14400 32300,26300 0,12000 -3400,26200 -25100,40000 -18200,11600 -81900,50800 -118600,92900 -16800,19200 -25100,37500 -25100,57300 0,19700 8300,38100 25100,57400 36600,42100 100400,81200 118600,92900 21600,13900 25100,28000 25100,39800 0,12000 -14800,26300 -32300,26300 -17600,0 -27900,-6400 -45000,-20200 -29200,-23700 -87100,-71000 -127200,-117700 -24000,-28000 -40900,-54000 -40900,-78500 0,-24400 16900,-50400 40900,-78400 40100,-46800 97900,-94000 127200,-117900 17100,-13800 27400,-20200 45000,-20200zm251900 121000c-52700,0 -95500,42800 -95500,95500 0,52800 42800,95500 95500,95500 52700,0 95500,-42700 95500,-95500 0,-52700 -42800,-95500 -95500,-95500z"/>
 </g>
</svg>
