<?xml version="1.0" encoding="UTF-8"?>
<!DOCTYPE svg PUBLIC "-//W3C//DTD SVG 1.1//EN" "http://www.w3.org/Graphics/SVG/1.1/DTD/svg11.dtd">
<!-- Creator: CorelDRAW 2018 (64 Bit) -->
<svg xmlns="http://www.w3.org/2000/svg" xml:space="preserve" width="65px" height="36px" version="1.1" style="shape-rendering:geometricPrecision; text-rendering:geometricPrecision; image-rendering:optimizeQuality; fill-rule:evenodd; clip-rule:evenodd"
viewBox="0 0 650000 359990"
 xmlns:xlink="http://www.w3.org/1999/xlink">
 <defs>
  <style type="text/css">
   <![CDATA[
    .fil1 {fill:#312142}
    .fil0 {fill:#4B46C8}
    .fil2 {fill:#A0D2DC}
   ]]>
  </style>
 </defs>
 <g id="Capa_x0020_1">
  <metadata id="CorelCorpID_0Corel-Layer"/>
  <path class="fil0" d="M325000 360000c179490,0 325000,-80590 325000,-180000 0,-99420 -145510,-180000 -325000,-180000 -179490,0 -325000,80580 -325000,180000 0,99410 145510,180000 325000,180000z"/>
  <path class="fil1" d="M429740 280470l20200 0c5510,0 10000,4490 10000,10000l0 20000c0,5510 -4490,10000 -10000,10000l-20000 0c-4060,0 -7570,-2440 -9130,-5940 -4590,3860 -11290,5940 -20870,5940 -10000,0 -20000,0 -30000,0 -1820,0 -3530,-490 -5000,-1350 -1480,860 -3180,1350 -5000,1350l-10000 0c-2130,0 -4100,-670 -5720,-1810 -4360,1690 -9110,2510 -13600,2510 -9710,0 -17010,-1720 -22040,-5680 -1730,2970 -4960,4980 -8640,4980l-50000 0c-5510,0 -10000,-4490 -10000,-10000l0 -80000c0,-5510 4490,-10000 10000,-10000l20000 0c5510,0 10000,4490 10000,10000l0 60000 20000 0c10,0 10,0 20,0 250,-8050 2930,-15080 7490,-20320 -4310,-1110 -7510,-5030 -7510,-9680l0 -10000c0,-5510 4490,-10000 10000,-10000 11300,0 22600,0 33900,0 6360,0 11830,2020 16100,5430l0 -15430c0,-5510 4490,-10000 10000,-10000l20000 0c5510,0 10000,4490 10000,10000l0 20000c19190,0 28360,12900 29800,30000zm-51010 -214510c3190,-4670 8930,-7460 14610,-7460 6210,0 11500,1430 16680,4960 7840,5340 15980,12270 21850,19750 4630,5900 6890,13830 6890,21280 0,8500 -2600,16150 -8030,22690 11670,1010 20840,10800 20840,22730 0,12600 -10220,22820 -22820,22820 -13420,0 -23960,-11580 -22720,-24910 -7220,3420 -16830,4040 -23520,-910 -2820,3730 -5640,6620 -8910,9920 13250,-8330 33670,6890 26580,25330 -6090,15830 -18630,20300 -34520,20300 -17980,0 -30010,-2670 -35660,-14100 -5650,11430 -17680,14100 -35660,14100 -15890,0 -28430,-4470 -34510,-20300 -7090,-18420 13270,-33620 26520,-25370 -3240,-3290 -6060,-6170 -8860,-9880 -6690,4950 -16300,4330 -23520,910 1240,13330 -9300,24910 -22720,24910 -12600,0 -22820,-10220 -22820,-22820 0,-11930 9170,-21720 20840,-22730 -5430,-6540 -8030,-14190 -8030,-22690 0,-7450 2260,-15380 6890,-21280 5870,-7480 14010,-14410 21850,-19750 5190,-3530 10470,-4960 16680,-4960 5680,0 11420,2790 14610,7460 8080,-8880 18910,-15110 31820,-17990 -3670,-4050 -5900,-9420 -5900,-15310 0,-12600 10210,-22810 22810,-22810 12600,0 22810,10210 22810,22810 0,5890 -2230,11260 -5900,15310 12910,2880 23740,9110 31820,17990zm-43700 75920c-1640,250 -3320,370 -5030,370 -1710,0 -3390,-120 -5030,-370 1880,2590 3610,5380 5030,8470 1420,-3090 3150,-5880 5030,-8470zm-68300 -46360c-2850,1880 -5570,3930 -8000,6580 -370,410 -1600,1810 -1720,2410 120,570 1350,1970 1720,2370 2010,2190 4210,3970 6520,5580 -140,-5590 380,-11460 1480,-16940zm126540 0c1100,5480 1620,11350 1490,16940 2300,-1610 4500,-3390 6510,-5580 370,-400 1600,-1800 1720,-2410 -120,-560 -1350,-1960 -1720,-2370 -2430,-2650 -5150,-4700 -8000,-6580zm-213280 94480c10,-5510 4500,-10000 10000,-10000l10010 0c5500,0 9990,4490 9990,10000l0 10000c3340,0 6670,0 10010,0 5500,0 9990,4490 9990,10000l0 20000c0,5500 -4490,9990 -9990,9990l-170000 0c-5510,0 -10000,-4490 -10000,-9990l0 -40000c0,-5510 4490,-10000 10000,-10000l49990 0c5510,0 10000,4490 10000,10000 10,-5510 4500,-10000 10000,-10000l50010 0c5500,0 9990,4490 9990,10000zm380010 0c0,-5510 4490,-10000 10000,-10000l10000 0c5510,0 10000,4490 10000,10000l0 10000c3330,0 6670,0 10000,0 5510,0 10000,4490 10000,10000l0 20000c0,5500 -4490,9990 -10000,9990l-170000 0c-5510,0 -10000,-4490 -10000,-9990l0 -40000c0,-5510 4490,-10000 10000,-10000l50000 0c5500,0 9990,4490 10000,10000 0,-5510 4490,-10000 10000,-10000l50000 0c5510,0 10000,4490 10000,10000z"/>
  <path class="fil2" d="M429940 310470l0 -20000 20000 0 0 20000 -20000 0zm-198700 -205980c0,4030 1010,10340 4760,15120 6300,8020 15490,14850 19610,17650 4120,2810 7780,3230 11050,3230 2880,0 6230,-1770 6970,-4420 740,-2660 -200,-6620 -3770,-8900 -3000,-1910 -12250,-6710 -18500,-13530 -2840,-3100 -4350,-5880 -4350,-9150 0,-3260 1510,-6040 4350,-9140 6250,-6820 15500,-11630 18500,-13530 3570,-2290 4510,-6240 3770,-8900 -740,-2660 -4090,-4420 -6970,-4420 -3270,0 -6930,420 -11050,3220 -4120,2810 -13310,9630 -19610,17660 -3750,4780 -4760,11090 -4760,15110zm197510 32610c7080,0 12820,5730 12820,12810 0,7080 -5740,12820 -12820,12820 -7080,0 -12810,-5740 -12810,-12820 0,-7080 5730,-12810 12810,-12810zm-197500 0c-7080,0 -12820,5730 -12820,12810 0,7080 5740,12820 12820,12820 7080,0 12810,-5740 12810,-12820 0,-7080 -5730,-12810 -12810,-12810zm98750 -117260c-7080,0 -12820,5740 -12820,12820 0,7080 5740,12820 12820,12820 7080,0 12820,-5740 12820,-12820 0,-7080 -5740,-12820 -12820,-12820zm0 36330c33090,0 54770,21460 54770,54900 0,33430 -30770,43610 -30770,56110 0,7430 2250,9760 9540,9760 7290,0 7920,-1470 13110,-9320 5190,-7850 18160,630 14190,10950 -4290,11170 -12610,13890 -25180,13890 -19580,0 -29390,-1040 -29390,-24640 0,-26390 28870,-32590 28870,-56240 0,-21660 -12330,-36860 -35140,-36860 -22810,0 -35140,15200 -35140,36860 0,23650 28870,29850 28870,56240 0,23600 -9810,24640 -29390,24640 -12570,0 -20890,-2720 -25180,-13890 -3970,-10320 9000,-18800 14190,-10950 5190,7850 5820,9320 13110,9320 7290,0 9540,-2330 9540,-9760 0,-12500 -30770,-22680 -30770,-56110 0,-33440 21680,-54900 54770,-54900zm0 76090c-12820,0 -23220,-10400 -23220,-23220 0,-12820 10400,-23220 23220,-23220 12820,0 23220,10400 23220,23220 0,12820 -10400,23220 -23220,23220zm98760 -27770c0,4030 -1010,10340 -4760,15120 -6300,8020 -15490,14850 -19610,17650 -4120,2810 -7780,3230 -11050,3230 -2880,0 -6230,-1770 -6970,-4420 -740,-2660 200,-6620 3770,-8900 3000,-1910 12250,-6710 18500,-13530 2840,-3100 4350,-5880 4350,-9150 0,-3260 -1510,-6040 -4350,-9140 -6250,-6820 -15500,-11630 -18500,-13530 -3570,-2290 -4510,-6240 -3770,-8900 740,-2660 4090,-4420 6970,-4420 3270,0 6930,420 11050,3220 4120,2810 13310,9630 19610,17660 3750,4780 4760,11090 4760,15110zm-328770 115510l0 10000 -10000 0 -10000 0 -10000 0 -9990 0 -10000 0 0 -10000 0 -30000 10000 0 0 30000 9990 0 0 -20000 0 -10000 10000 0 10000 0 10000 0 0 10000 0 20000zm-20000 0l10000 0 0 -20000 -10000 0 0 20000zm60000 -30000l10010 0 0 30000 10000 0 0 -30000 10000 0 0 30000 19990 0 0 -30000 10010 0 0 30000 10000 0 0 -10000 10000 0 0 10000 0 10000 -10000 0 -10000 0 -10010 0 -19990 0 -10000 0 -10000 0 -10010 0 0 -10000 0 -30000zm-20000 0l10000 0 0 30000 0 10000 -10000 0 -9990 0 0 -10000 9990 0 0 -30000zm360010 30000l0 10000 -10010 0 -9990 0 -10000 0 -10000 0 -10000 0 0 -10000 0 -30000 10000 0 0 30000 10000 0 0 -20000 0 -10000 10000 0 9990 0 10010 0 0 10000 0 20000zm-20000 0l9990 0 0 -20000 -9990 0 0 20000zm60000 -30000l10000 0 0 30000 10000 0 0 -30000 10000 0 0 30000 20000 0 0 -30000 10000 0 0 30000 10000 0 0 -10000 10000 0 0 10000 0 10000 -10000 0 -10000 0 -10000 0 -20000 0 -10000 0 -10000 0 -10000 0 0 -10000 0 -30000zm-20000 0l10000 0 0 30000 0 10000 -10000 0 -10000 0 0 -10000 10000 0 0 -30000zm-250060 40470l20000 0 0 70000 30000 0 0 10000 -50000 0 0 -80000zm60000 30000l0 -10000c0,0 23900,0 33900,0 10000,0 16100,7680 16100,17690 0,10000 0,42310 0,42310l-10000 0 0 -10000c0,0 -3070,10700 -19320,10700 -16260,0 -20680,-4440 -20680,-19440 0,-15000 10000,-21260 20000,-21260 10000,0 10000,-10000 10000,-10000l-30000 0zm20000 40000l0 -20000 10000 0 0 20000 -10000 0zm60000 -40000l0 -30000 -20000 0 0 80000c0,0 12650,0 30000,0 17340,0 20000,-7540 20000,-25030 0,-17500 -7510,-24970 -20000,-24970 -10000,0 -10000,0 -10000,0zm0 10000l10000 0 0 30000 -10000 0 0 -30000z"/>
 </g>
</svg>
