<?xml version="1.0" encoding="UTF-8"?>
<!DOCTYPE svg PUBLIC "-//W3C//DTD SVG 1.1//EN" "http://www.w3.org/Graphics/SVG/1.1/DTD/svg11.dtd">
<!-- Creator: CorelDRAW 2018 (64 Bit) -->
<svg xmlns="http://www.w3.org/2000/svg" xml:space="preserve" width="65px" height="36px" version="1.1" style="shape-rendering:geometricPrecision; text-rendering:geometricPrecision; image-rendering:optimizeQuality; fill-rule:evenodd; clip-rule:evenodd"
viewBox="0 0 650000 359990"
 xmlns:xlink="http://www.w3.org/1999/xlink">
 <defs>
  <style type="text/css">
   <![CDATA[
    .fil1 {fill:#312142}
    .fil0 {fill:#4B46C8}
    .fil2 {fill:#A0D2DC;fill-rule:nonzero}
   ]]>
  </style>
 </defs>
 <g id="Capa_x0020_1">
  <metadata id="CorelCorpID_0Corel-Layer"/>
  <g id="_4a">
   <path class="fil0" d="M325000 360000c179490,0 325000,-80590 325000,-180000 0,-99420 -145510,-180000 -325000,-180000 -179490,0 -325000,80580 -325000,180000 0,99410 145510,180000 325000,180000z"/>
   <path class="fil1" d="M230000 140000l219990 0c5500,0 10000,4500 10000,9990l0 170020c0,5490 -4500,9990 -10000,9990l-259980 0c-5500,0 -10010,-4500 -10010,-9990l0 -170020c0,-5490 4510,-9990 10010,-9990l29990 0c-5500,-10 -9990,-4500 -9990,-10010l-30000 0c-5510,0 -10000,-4490 -10000,-9990l0 -10000c0,-1030 150,-2020 440,-2950 -3040,1870 -6620,2940 -10450,2940l0 10010c0,5500 -4490,9990 -10000,9990l-9990 0c-5510,0 -10000,-4490 -10000,-9990l0 -60010c0,-5500 4490,-9990 10000,-9990l19990 0c11050,0 20000,8950 20000,19990l70010 10c3260,0 6170,1570 7990,4000 3350,-2510 7510,-4000 12010,-4000l20000 0 0 -10010c0,-5500 4490,-9990 10000,-9990l10000 0c5500,0 9990,4490 9990,9990l10 10010c3250,0 6320,770 9030,2150 -980,-2180 -1530,-4610 -1530,-7160 0,-9660 7840,-17500 17500,-17500 9660,0 17500,7840 17500,17500 0,1740 -250,3420 -730,5010l18230 0c4510,0 8660,1490 12010,4000 1820,-2430 4730,-4010 8000,-4010 0,-5500 4490,-9990 9990,-9990l10000 0c5510,0 10000,4490 10000,10000l80000 0c5510,0 10000,4490 10000,9990l0 20010c0,7400 -4030,13860 -10000,17320l0 2680c0,11040 -8960,20000 -20000,19990l-10000 0c-5510,0 -10000,-4490 -10000,-10000l0 -9990c0,-3260 1580,-6170 4010,-8000 -2510,-3340 -4010,-7500 -4010,-12000 -1320,0 -2650,-10 -3980,-10 -1830,1010 -5020,4200 -6020,6030 0,4660 0,9320 0,13980 0,5500 -4490,9990 -10000,9990l-30000 0c-11040,0 -19990,-8950 -19990,-19990 0,0 -10,10000 -10,10000 0,5500 -4490,9990 -10000,9990l-120000 0c-8720,0 -16140,-5590 -18870,-13380 -370,250 -750,480 -1130,710l0 2680c0,11040 -8970,20000 -20010,20000z"/>
   <path class="fil2" d="M160000 100000c5530,0 10000,-4480 10000,-10010l0 -20000c0,-5520 -4470,-10000 -10000,-10000l-19990 0 0 40010 0 20000 9990 0 0 -20000 10000 0zm30000 220000l0 -120000 30000 0c5520,0 10000,-4480 10000,-10000l0 -40000 220000 0 0 170000 -260000 0zm20000 -10000l230000 0 0 -150000 -200000 0 0 30000c0,11050 -8950,20000 -20000,20000l-10000 0 0 100000zm-10000 -120000l-10000 0 0 -40000 30000 0 0 10000 -20000 0 0 30000zm70000 45000c0,-6560 1530,-10050 7200,-13650 3430,-2200 5500,-6680 2550,-10380 -2950,-3700 -8240,-1360 -10990,930 -7030,5870 -9680,14110 -9680,23100 0,9000 2650,17230 9680,23100 2750,2290 8040,4640 10990,940 2950,-3700 880,-8180 -2550,-10390 -5670,-3600 -7200,-7080 -7200,-13650zm110000 0c0,-6560 -1530,-10050 -7200,-13650 -3430,-2200 -5500,-6680 -2550,-10380 2950,-3700 8240,-1360 10990,930 7030,5870 9680,14110 9680,23100 0,9000 -2650,17230 -9680,23100 -2750,2290 -8040,4640 -10990,940 -2950,-3700 -880,-8180 2550,-10390 5670,-3600 7200,-7080 7200,-13650zm-55000 -25000c-15870,0 -25000,9850 -25000,24850 0,16370 20660,21910 20660,40180 0,16340 -3360,15970 -20660,15970 -17300,0 -20860,-1000 -20860,-11000 0,-10000 990,-10000 5400,-10000 4410,0 5460,0 5460,4820 0,5180 0,5180 10000,5180 10000,0 10000,0 10000,-6280 0,-8650 -21250,-15140 -21250,-38290 0,-23150 13340,-37700 36250,-37700 22910,0 36250,14550 36250,37700 0,23150 -21250,29640 -21250,38290 0,6280 0,6280 10000,6280 10000,0 10000,0 10000,-5180 0,-4820 1050,-4820 5460,-4820 4410,0 5400,0 5400,10000 0,10000 -3560,11000 -20860,11000 -17300,0 -20660,370 -20660,-15970 0,-18270 20660,-23810 20660,-40180 0,-15000 -9130,-24850 -25000,-24850zm-10 36700c6790,0 12300,-5500 12300,-12300 0,-6790 -5510,-12290 -12300,-12290 -6790,0 -12300,5500 -12300,12290 0,6800 5510,12300 12300,12300zm-69990 26040c4280,0 7740,-3470 7740,-7740 0,-4280 -3460,-7740 -7740,-7740 -4270,0 -7740,3460 -7740,7740 0,4270 3470,7740 7740,7740zm140000 0c4280,0 7740,-3470 7740,-7740 0,-4280 -3460,-7740 -7740,-7740 -4270,0 -7740,3460 -7740,7740 0,4270 3470,7740 7740,7740zm-70250 -82080c4270,0 7740,-3470 7740,-7740 0,-4280 -3470,-7740 -7740,-7740 -4280,0 -7740,3460 -7740,7740 0,4270 3460,7740 7740,7740zm50260 -85650c-2720,0 -5000,2230 -5000,5000l0 2500c3330,0 6670,0 10000,0 0,-3340 0,-4170 0,-7500l-5000 0zm75000 14990l-10000 0 0 -40010 10000 0 0 10000 10000 -10000 10000 0 0 10000c0,0 0,0 -5000,0 -5000,0 -15000,10010 -15000,15010 0,5000 0,15000 0,15000zm-40000 -10000c0,5520 4480,10000 10000,10000l10000 0 0 -10000 -10000 0 0 -20010 10000 0 0 -10000 -10000 0 0 -10000 -10000 0 0 10000 -10000 0 0 10000 10000 0 0 20010zm-30000 -30010c5520,0 10000,4480 10000,10000l0 10010 0 10000 0 10000 -30000 0 0 -11250c0,-5520 4480,-10000 10000,-10000l10000 0 0 -8760 -20000 0 0 -10000 20000 0zm-40000 0l10000 0 0 40010 -10000 0 0 -40010zm5000 -22500c4150,0 7500,3360 7500,7500 0,4150 -3350,7500 -7500,7500 -4140,0 -7500,-3350 -7500,-7500 0,-4140 3360,-7500 7500,-7500zm-25000 22500c5520,0 10000,4480 10000,10000l0 30010 -10000 0 0 -30010 -10000 0 0 30010 -10000 0 0 -60010 10000 0 0 20000 10000 0zm-60000 10000c0,-5520 4480,-10000 10000,-10000l20000 0 0 10000 -20000 0 0 20010 20000 0 0 10000 -20000 0c-5520,0 -10000,-4480 -10000,-10000l0 -20010zm220000 10010l0 -20010 10000 0 0 20010 10000 0 0 -20010 10000 0 0 20010c0,5520 -4480,10000 -10000,10000l0 10000c0,5520 -4480,10000 -10000,10000l0 -10 -10000 0 0 -9990 10000 0 0 -10000c-5520,0 -10000,-4480 -10000,-10000zm-260000 0l0 -20010 10000 0 0 20010 10000 0 0 -20010 10000 0 0 20010c0,5520 -4480,10000 -10000,10000l0 10000c0,5520 -4480,10000 -10000,10000l0 -10 -10000 0 0 -9990 10000 0 0 -10000c-5520,0 -10000,-4480 -10000,-10000zm-10000 -10010l0 -10000 -25130 0c-2660,80 -4810,2220 -4870,4880l0 5120c0,8440 13010,13020 20000,20010l-20000 0 0 10000 25130 0c2660,-70 4800,-2210 4870,-4870l0 -5130c0,-8440 -13020,-13020 -20000,-20010l20000 0zm-60010 -20000l10000 0 0 20000 -10000 0 0 -20000z"/>
  </g>
 </g>
</svg>
