<?xml version="1.0" encoding="UTF-8"?>
<!DOCTYPE svg PUBLIC "-//W3C//DTD SVG 1.1//EN" "http://www.w3.org/Graphics/SVG/1.1/DTD/svg11.dtd">
<!-- Creator: CorelDRAW 2018 (64 Bit) -->
<svg xmlns="http://www.w3.org/2000/svg" xml:space="preserve" width="65px" height="36px" version="1.1" style="shape-rendering:geometricPrecision; text-rendering:geometricPrecision; image-rendering:optimizeQuality; fill-rule:evenodd; clip-rule:evenodd"
viewBox="0 0 650000 359990"
 xmlns:xlink="http://www.w3.org/1999/xlink">
 <defs>
  <style type="text/css">
   <![CDATA[
    .fil1 {fill:#312142}
    .fil0 {fill:#4B46C8}
    .fil3 {fill:#697A8F;fill-rule:nonzero}
    .fil2 {fill:#A0D2DC;fill-rule:nonzero}
   ]]>
  </style>
 </defs>
 <g id="Capa_x0020_1">
  <metadata id="CorelCorpID_0Corel-Layer"/>
  <g id="_2a">
   <path class="fil0" d="M325000 360000c179490,0 325000,-80590 325000,-180000 0,-99420 -145510,-180000 -325000,-180000 -179490,0 -325000,80580 -325000,180000 0,99410 145510,180000 325000,180000z"/>
   <path class="fil1" d="M506400 161730l0 7580c11860,-3910 25700,8300 17220,23010l-59410 103020c-6220,10780 -21470,14360 -32930,14370l-159580 -50c-25570,0 -36170,-19000 -36170,-42150 0,-19250 4770,-27290 14120,-43500l3370 -5830c-2940,-1070 -5520,-2580 -7690,-4490 -4180,3880 -9270,6480 -15470,6480 -6360,0 -11270,-2160 -14850,-5700 -5280,3950 -11690,5700 -20460,5700 -7840,0 -14710,-3210 -19570,-8380 -5180,4980 -11530,8380 -19550,8380 -11280,0 -21000,-3480 -27080,-11120 -9740,5980 -21160,11120 -31620,11120 -11650,0 -36420,-1380 -37960,-17120 -270,-2780 370,-5570 1730,-8010 7620,-13660 24070,-2650 36310,-2930 8240,-190 18200,-6770 25290,-12310 540,-4730 1540,-9450 2750,-14020 3610,-13510 9090,-26900 14930,-39590 8710,-18920 27760,-59100 53080,-59100 17400,0 24870,13190 24870,28970 0,18940 -21200,46100 -35670,63240 6920,-5960 15680,-9300 25520,-9320 4480,0 8760,1150 12460,3270 4750,-2140 9590,-510 13860,1900 4120,2320 6030,7060 4660,11590 -2280,7530 -4140,12850 -4670,20790 2710,-4640 5540,-11270 6730,-14040 2000,-7490 4540,-18700 11460,-22750 -2300,-3110 -3670,-6950 -3670,-11120 0,-10330 8370,-18700 18700,-18700 10330,0 18700,8370 18700,18700 0,7250 -4130,13540 -10160,16640 1230,2340 1530,5170 610,7870 -1250,3670 -6030,16570 -7860,24580 2230,-4390 4430,-11110 5280,-13270 3910,-9960 8720,-18530 17100,-22660l16270 -28190c-8380,-4450 -16190,-9830 -23320,-16960 -9940,-9940 -22120,-20750 -30610,-31820 -6800,-8890 -8730,-23360 -8730,-34320 0,-13350 2080,-34470 20070,-34050 9950,240 34140,26050 41070,32860 21900,21560 43380,43590 65050,65400l3040 3060 127180 0c15100,0 29580,11400 20750,26730l-15150 26240zm-248280 47610l4350 -7520c-9810,-3310 -2390,-21130 4320,-40910 -2940,-1260 -7310,-2390 -9180,-1750 -1880,630 -3540,3950 -5120,9200 -850,2800 -1670,5620 -2390,8390 -5570,12920 -11040,25620 -20240,25620 -6710,0 -6670,-10950 -5460,-20640 1220,-9680 4080,-16200 4590,-17880 -1530,-860 -3770,-1920 -4750,-1530 -890,350 -2000,2810 -3290,6190 -1930,-4480 -6590,-8540 -13360,-8530 -11510,20 -20630,5980 -26190,15870 -7610,13900 -15270,26520 -24870,26520 -9410,0 -12090,-7780 -11010,-18880 7230,-6500 14820,-14230 22600,-23260 29570,-34340 39620,-52860 39620,-64170 0,-11300 -4100,-18980 -14880,-18980 -10780,0 -24950,11930 -44000,53290 -7480,16260 -11830,28540 -14350,37990 -1500,5640 -2560,11290 -2800,16520 -13520,11240 -24930,17000 -34670,17220 -15800,360 -24740,-7680 -27810,-2180 -3070,5490 7490,10260 27500,10260 8580,0 21020,-5110 35630,-15900 1990,9390 8550,15900 23070,15900 9420,0 15980,-7800 22020,-18560l-10 880c0,7470 5230,17680 17110,17680 11870,0 16640,-3630 22260,-13390l740 -1290c580,7480 3450,14680 12310,14680 7680,0 13370,-8230 17530,-16950 -70,7910 2620,13970 10730,16110zm55590 -92540c7510,-5610 18740,-8040 27050,-8040l18770 0c-45560,-45920 -89440,-91190 -95310,-91320 -6570,-160 -9830,6870 -9830,24050 0,7970 1280,21200 6670,28240 6250,8160 16150,17250 29740,30830 7010,7020 14850,12140 22910,16240zm-46600 14110c4810,0 8700,3890 8700,8710 0,4800 -3890,8700 -8700,8700 -4810,0 -8700,-3900 -8700,-8700 0,-4820 3890,-8710 8700,-8710zm-76940 58780c0,8780 4360,13850 9120,13840 4760,-20 7870,-3220 10810,-7750 5480,-8450 7890,-16380 7890,-23570 -820,-2500 -4260,-5480 -11260,-5480 -7710,0 -16560,14180 -16560,22960zm-41940 -20150c3650,-3700 7420,-7710 11340,-12030 26490,-29280 37420,-53330 37420,-58290 0,-4970 -1020,-7950 -6160,-7950 -5140,0 -19630,22880 -29940,44640 -3690,7800 -7020,16100 -9730,24070 -1100,3240 -2090,6440 -2930,9560zm7080 18530c10,1650 140,3360 570,4270 220,30 490,30 650,30 4410,0 14230,-17950 16120,-21360 450,-810 920,-1610 1410,-2380 -5930,6770 -12160,13310 -18750,19440z"/>
   <path class="fil2" d="M452040 275210l53580 -92920c4520,-7830 13710,-2710 9340,4860l-52170 90470c-2810,4880 -5590,9680 -7240,12550 -1790,3100 -8700,9340 -24280,9360 -4820,10 -154800,-50 -159570,-50 -20410,0 -26180,-15560 -26180,-32150 0,-16590 3560,-22510 12790,-38500l5130 -8880c660,30 1330,50 2000,50 7340,0 12790,-3130 17070,-7810 2470,5450 9390,7810 15740,7810 11220,0 15040,-9270 19210,-17640 -1270,9250 3700,17640 13570,17640l108320 -10c9680,10 18200,-6620 18200,-16980 0,-9770 -13060,-22690 -19350,-29350 -17710,-18760 -36220,-36870 -54560,-55080l37110 0c26670,0 53340,0 80050,0 10350,0 15730,5420 12090,11730 -9710,16830 -18090,31320 -27790,48130 -9710,16820 -19420,33640 -29130,50450 -2980,5170 -13910,9370 -24270,9370 -26700,-10 -53370,-20 -80030,-30l-76220 -30c-13710,0 -17420,17490 -17420,28190 0,13050 4820,22930 18570,22930 0,0 150490,0 153310,0 10420,0 17240,-5630 22130,-14110zm-184930 -144480c4810,0 8700,3890 8700,8710 0,4810 -3890,8700 -8700,8700 -4810,0 -8700,-3890 -8700,-8700 0,-4820 3890,-8710 8700,-8710zm-76940 58780c0,8780 4360,13850 9120,13840 4760,-20 7870,-3220 10810,-7740 5480,-8460 7890,-16380 7890,-23580 -820,-2500 -4260,-5470 -11260,-5470 -7710,0 -16560,14170 -16560,22950zm-41940 -20150c3650,-3700 7420,-7710 11340,-12030 26490,-29280 37420,-53330 37420,-58290 0,-4960 -1020,-7950 -6160,-7950 -5140,0 -19630,22880 -29940,44650 -3690,7790 -7020,16090 -9730,24060 -1100,3240 -2090,6440 -2930,9560zm121440 39800l-60 30 -30 10 -40 10 -60 30 -60 20 -60 20 -130 50 -60 20 -70 20 -60 20 -20 20 -40 10 -60 20 -70 20 -60 20 -70 20 -60 20 -70 20 -60 20 -60 20 -20 0 -50 20 -60 10 -70 20 -130 30 -60 20 -70 20 -60 10 -70 20 -20 0 -40 10 -70 10 -60 20 -140 30 -60 10 -70 10 -70 10 -60 10 -20 10 -50 10 -70 10 -60 0 -70 20 -130 20 -70 0 -70 10 -70 10 -10 0 -50 10 -70 0 -70 10 -340 30 -70 0 -10 0 -60 0 -70 10 -490 10c-13890,0 -18140,-7020 -18050,-16950 -4160,8730 -9850,16950 -17530,16950 -8860,0 -11730,-7200 -12310,-14670l-740 1280c-5620,9760 -10390,13390 -22260,13390 -11880,0 -17110,-10210 -17110,-17680l10 -870c-6040,10750 -12600,18550 -22020,18550 -14520,0 -21080,-6510 -23070,-15900 -14610,10790 -27050,15900 -35630,15900 -20010,0 -30570,-4760 -27500,-10260 3070,-5500 12010,2550 27810,2180 9740,-220 21150,-5980 34670,-17210 240,-5240 1300,-10880 2800,-16530 2520,-9450 6870,-21730 14350,-37990 19050,-41360 33220,-53280 44000,-53280 10780,0 14880,7680 14880,18980 0,11300 -10050,29830 -39620,64160 -7780,9030 -15370,16760 -22600,23260 -1080,11100 1600,18880 11010,18880 9600,0 17260,-12620 24870,-26520 5560,-9880 14680,-15850 26190,-15870 6770,0 11430,4050 13360,8530 1290,-3380 2400,-5840 3290,-6190 980,-380 3220,670 4750,1530 -510,1680 -3370,8200 -4590,17880 -1210,9690 -1250,20640 5460,20640 9200,0 14670,-12690 20240,-25620 720,-2770 1540,-5580 2390,-8390 1580,-5250 3240,-8570 5120,-9200 1870,-640 6240,490 9180,1760 -7440,21920 -15760,41450 -490,41450 9670,0 13820,-15980 16680,-23280l180 -450 50 -110 130 -340 90 -220 90 -230 130 -320 50 -120 170 -420 10 -20 180 -430 40 -80 150 -350 70 -180 110 -240 120 -280 60 -130 160 -380 20 -30 210 -470 160 -340 70 -150 110 -240 120 -250 70 -140 160 -340 20 -50 190 -380 20 -40 170 -330 60 -130 130 -240 110 -210 80 -150 160 -300 30 -60 200 -360 10 -20 180 -320 60 -100 140 -250 110 -180 90 -150 160 -260 40 -70 200 -330 0 0 210 -320 50 -80 150 -230 100 -150 110 -160 160 -220 50 -80 210 -290 0 -10 220 -290 40 -60 180 -230 100 -130 120 -150 150 -190 70 -80 210 -250 10 -20 230 -270 40 -40 190 -210 100 -100 140 -150 150 -160 80 -90 210 -210 30 -30 240 -230 30 -30 220 -200 90 -80 160 -140 150 -130 100 -90 210 -180 50 -30 490 -390 30 -10 80 -60 180 -130 150 -110 120 -80 280 -180 270 -170 10 -10 270 -160 80 -50 210 -110 290 -150 210 -120 80 -40 290 -140 10 0 300 -140 70 -30 230 -90 150 -60 160 -70 220 -80 100 -40 300 -100 20 -10 320 -100 60 -20 270 -80c1680,-490 3550,-730 5670,-690 8370,120 11880,5420 12920,11380 4030,-6460 9940,-11380 17240,-11380 10270,0 13150,7870 13270,15170 140,8000 -10880,27530 -6960,27530l89080 -20c-15640,-14390 -43820,-46080 -58090,-59160 -11150,-10220 -28400,-14590 -45870,-21780l-550 -230 -560 -230 -150 -60 -410 -170 -560 -240 -400 -180 -150 -60 -560 -240 -560 -240 -110 -50 -450 -200 -550 -250 -380 -170 -180 -80 -560 -250 -550 -260 -80 -30 -480 -230 -550 -260 -340 -150 -220 -110 -550 -270 -560 -270 -40 -20 -510 -250 -550 -280 -310 -150 -250 -130 -550 -270 -540 -290 -20 -10 -540 -280 -540 -290 -270 -140 -280 -160 -550 -290 -530 -290 -20 -20 -540 -300 -550 -310 -230 -130 -310 -190 -540 -310 -1080 -650 -540 -330 -540 -330 -540 -340 -440 -280 -90 -60 -530 -340 -540 -350 -160 -110 -360 -250 -530 -350 -410 -280 -120 -90 -530 -370 -520 -370 -130 -90 -400 -290 -510 -380 -370 -270 -150 -110 -520 -390 -510 -400 -100 -70 -110 -90 -820 -650 -330 -270 -180 -140 -500 -420 -510 -410 -60 -60 -940 -810 -300 -250 -200 -180 -500 -450 -490 -450 -30 -20 -100 -100 -850 -790 -260 -250 -230 -220 -960 -950c-13590,-13580 -23490,-22670 -29740,-30830 -5390,-7040 -6670,-20270 -6670,-28240 0,-17180 3260,-24210 9830,-24050l340 50 10 0 370 110 30 10 10 10 410 180 10 0 300 160 210 100 90 60 480 280 140 80 130 90 520 340 20 20 510 350 230 160 220 160c680,500 1420,1070 2240,1730l120 90 510 420 470 390 490 400 550 470 470 390 620 540 440 380 700 620 420 360 790 700 370 340 880 780 330 300 970 880 290 270 1060 970 250 230 1160 1070 190 180 1260 1180 130 120 1360 1290 70 70 1480 1390 0 0 1520 1450 60 70 1490 1420 140 140 1460 1400 210 210 1420 1370 300 290 1370 1340 380 370 1320 1290 470 460 1270 1240 560 550 1210 1200 650 630 1160 1150 740 730 1090 1080 840 830 1030 1020 930 930 960 960 1040 1030 4080 4070 730 730 1350 1350 650 650 1460 1470 560 570 1570 1570 480 480 1680 1690 390 390 1790 1810 300 300 1910 1920 200 210 2020 2030 110 110 2140 2160 10 10 2170 2190 80 80 2090 2120 190 190 2010 2030 290 290 1920 1940 390 390 1830 1850 490 500 1740 1760 600 610 1650 1660 700 710 1550 1570 800 820 1460 1470 910 920 1360 1370 1020 1030 1260 1270 1120 1130 1160 1170 1230 1240 1060 1070 1330 1350 960 960 1440 1450 850 860 1550 1550 740 750 1660 1670 640 640 1750 1770 540 540 6640 6650c50940,50940 71460,70590 71460,77780 0,4140 -3320,6990 -8480,6990l-108050 0c-10130,0 4150,-25830 4150,-33090 0,-6570 -2060,-9110 -6100,-9110 -5040,0 -10150,4570 -13210,12570 -2040,7960 -7740,18140 -10050,23080 -1770,3780 -4250,6550 -7570,6550 -2080,0 -7220,-90 -6580,-3330 650,-3240 14420,-26200 14420,-33460 0,-5330 -3690,-6430 -6390,-6430 -6270,0 -10640,10470 -10470,10560 -3700,7930 -9060,27530 -19560,31820zm34160 -59160l12240 -21200c4420,1970 8980,3790 13650,5550 10660,4020 25880,8790 34320,16530 14180,13000 27090,27720 40540,41790l-52570 20c2290,-5440 4860,-11040 4750,-17700 -240,-13970 -8240,-25000 -23270,-25000 -5810,0 -11000,1890 -15460,4990 -3720,-3060 -8540,-4830 -14200,-4980z"/>
   <path class="fil3" d="M279970 89670c-3720,-3670 -7060,-6970 -10010,-10020 8880,-3240 20530,-1790 20060,-7160 -620,-7120 -18120,-9110 -27740,-1390l-1220 -1550c-1820,-2370 -3170,-5450 -4160,-8800 5870,-4650 16230,-5440 13500,-11390 -1480,-3230 -8330,-2370 -15480,1200 -390,-3380 -530,-6600 -530,-9250l20 -1730c3530,-1660 7130,-2620 10610,-2470 14500,620 24000,13750 38750,29750 14750,16000 39130,37120 43130,42380 4000,5250 1240,9250 -3750,5990 -5000,-3250 -28500,-23990 -35500,-27490 -5240,-2620 -18010,-2790 -27680,1930zm-1270 156410c-8860,0 -11250,12100 -11250,19500 0,9030 3120,15860 11990,15860l156290 0 0 -35360 -157030 0z"/>
  </g>
 </g>
</svg>
