<?xml version="1.0" encoding="UTF-8"?>
<!DOCTYPE svg PUBLIC "-//W3C//DTD SVG 1.1//EN" "http://www.w3.org/Graphics/SVG/1.1/DTD/svg11.dtd">
<!-- Creator: CorelDRAW 2018 (64 Bit) -->
<svg xmlns="http://www.w3.org/2000/svg" xml:space="preserve" width="65px" height="36px" version="1.1" style="shape-rendering:geometricPrecision; text-rendering:geometricPrecision; image-rendering:optimizeQuality; fill-rule:evenodd; clip-rule:evenodd"
viewBox="0 0 650000 359990"
 xmlns:xlink="http://www.w3.org/1999/xlink">
 <defs>
  <style type="text/css">
   <![CDATA[
    .fil1 {fill:#312142}
    .fil0 {fill:#4B46C8}
    .fil3 {fill:#697A8F}
    .fil2 {fill:#A0D2DC;fill-rule:nonzero}
   ]]>
  </style>
 </defs>
 <g id="Capa_x0020_1">
  <metadata id="CorelCorpID_0Corel-Layer"/>
  <g id="_3a">
   <path class="fil0" d="M325000 360000c179490,0 325000,-80590 325000,-180000 0,-99420 -145510,-180000 -325000,-180000 -179490,0 -325000,80580 -325000,180000 0,99410 145510,180000 325000,180000z"/>
   <path class="fil1" d="M343070 103330l0 7570c11860,-3900 25710,8310 17220,23020l-49960 86640c1320,-370 2730,-560 4230,-560 6140,0 12830,2200 15490,7290 3260,-4290 7790,-7290 13640,-7290 6830,0 14330,2730 16230,9110 10590,-21670 19400,-43850 27400,-67410 2470,-7300 9230,-11030 16440,-11830 -9450,-9270 -20400,-19260 -28230,-29460 -6800,-8890 -8730,-23360 -8730,-34320 0,-13360 2080,-34480 20070,-34050 9950,230 34140,26040 41070,32860 21900,21550 43380,43590 65050,65400 4190,4220 8390,8430 12590,12640 18360,18350 37220,36620 55030,55500 6290,6660 19350,19570 19350,29340 0,10360 -8520,16990 -18220,16990 -29650,740 -59320,0 -88970,0 -2490,0 -5110,-300 -7690,-900 -5190,14770 -16660,26130 -34220,26130 -6650,0 -12570,-2220 -17180,-6060 -4060,3640 -9010,6060 -15050,6060 -13770,0 -22380,-6710 -25130,-17930 -7470,12260 -14110,17930 -29140,17930 -6830,0 -13440,-1470 -18640,-4900 -4440,3270 -9820,4990 -16380,4900 -11170,-160 -18510,-6410 -21550,-15440 -6280,9250 -15990,15440 -28910,15440 -6630,0 -12520,-2210 -17130,-6020 -4060,3620 -8990,6020 -15000,6020 -12090,0 -20810,-5510 -25080,-14470 -9890,8330 -21580,14200 -34970,14200 -11650,0 -36420,-1380 -37960,-17120 -270,-2780 370,-5570 1730,-8010 7620,-13660 24070,-2650 36310,-2930 7960,-190 15040,-4400 21130,-10390l-79540 -30c-25560,0 -36170,-18990 -36170,-42150 0,-19240 4770,-27280 14130,-43490l58230 -100850c5880,-10190 21910,-14410 32880,-14410l160030 0c15110,0 29590,11410 20750,26730l-15150 26250zm82090 63450c3880,17720 -3200,44980 -15110,60650 1380,1980 2440,4200 3160,6620 6870,-8660 17020,-14240 28760,-14240 11350,0 22280,6350 25420,17330 2170,420 5930,330 7420,330 17330,0 34650,-200 51980,-250 -13380,-14000 -26240,-28640 -40340,-41560 -8450,-7740 -23660,-12510 -34320,-16540 -9530,-3590 -18570,-7400 -26970,-12340z"/>
   <path class="fil2" d="M254500 259520c0,8780 4260,13420 9020,13420 11640,0 17070,-17760 17070,-27740 0,-4820 -2520,-8640 -9520,-8640 -8450,0 -16570,14180 -16570,22960zm132130 -197490c6580,150 60940,57040 111880,107970 50940,50940 71450,70590 71450,77780 0,4140 -3310,6990 -8470,6990 -29280,730 -59340,0 -88720,0 -3220,0 -10750,-1080 -14700,-5580 -1470,16300 -10390,30810 -27210,30810 -9770,0 -15040,-6910 -16610,-13520 -3790,7280 -8770,13520 -15620,13520 -11430,0 -16300,-5760 -16090,-17250 0,-12310 11100,-16880 11100,-24150 0,-5530 -4860,-7980 -9800,-7980 -5480,12140 -11370,23570 -18050,34880 -7730,13070 -12190,14500 -21430,14500 -11020,0 -16560,-4320 -18360,-10500 -3790,6860 -8450,10620 -16520,10500 -10120,-140 -13140,-7860 -13270,-15170 -60,-2920 980,-6650 2460,-10520 -4150,1660 -9210,1490 -12860,-2640 -2120,15260 -10960,28330 -26930,28330 -9710,0 -14980,-6820 -16580,-13390 -3780,7230 -8750,13390 -15550,13390 -12580,0 -18280,-7840 -18070,-19330 40,-2530 280,-5180 670,-7920 -16540,21630 -31480,26990 -42650,26990 -20010,0 -30570,-4770 -27500,-10270 3070,-5490 12010,2550 27810,2190 15810,-360 35000,-12270 51280,-50090 1950,-4980 4060,-9870 6200,-14530l-18190 0c-3620,0 -470,-7300 1690,-7300l19970 -10c7410,-15200 14210,-26460 14560,-27120 2240,-4190 9890,-1760 12830,-490 -1360,3510 -6940,14320 -13270,27610l53290 0c3610,0 490,7300 -1680,7300l-55040 10c-9270,20060 -18810,43440 -18460,56020 150,5660 2320,9140 7410,9140 8320,0 11210,-9410 15800,-21050 3610,-11770 13530,-21340 26580,-21340 8950,0 16150,5470 16310,13330 2430,9660 11840,9070 16220,2460 1750,-3620 3450,-6860 4480,-9060 1770,-3780 4250,-6550 7570,-6550 2080,0 7220,90 6580,3330 -650,3250 -14430,26210 -14430,33460 0,5330 3700,6430 6400,6430 5460,0 8380,-5470 14860,-19340 2580,-6610 6370,-13530 8150,-17330 1760,-3780 4250,-6550 7570,-6550 2070,0 7220,90 6570,3330 -640,3250 -14420,26210 -14420,33460 0,5330 3700,6430 6390,6430 2620,0 5190,-1680 7880,-4980 19560,-32830 33340,-64040 46680,-103320 1170,-3450 5200,-5200 9930,-5200 17720,0 8770,56430 -11860,68570 5670,1880 9480,6010 9480,13940 0,7980 -10280,11650 -10290,22920 160,5660 2120,7060 5440,7060 8650,0 11430,-10180 16350,-22450 3940,-11170 13560,-19940 26130,-19940 8310,0 15110,4730 16160,11700l0 -10c1690,6490 12250,5970 16680,5970 25310,0 50950,-440 76310,-190 -15670,-14460 -43700,-45960 -57920,-58990 -18750,-17190 -54680,-17820 -80000,-43130 -13580,-13590 -23480,-22680 -29730,-30840 -5390,-7030 -6670,-20270 -6670,-28230 0,-17190 3260,-24210 9830,-24060zm39850 197490c0,8780 4260,13420 9020,13420 11640,0 17080,-17760 17080,-27740 0,-4820 -2530,-8640 -9530,-8640 -8450,0 -16570,14180 -16570,22960zm-19510 -90230c-6240,19090 -12240,35800 -18720,51220 13210,-1580 24580,-42410 18720,-51220zm-122850 54090c1700,-1860 3210,-4000 4570,-6350l5000 0c12330,0 17250,-18040 9290,-24790l39310 -68170c4520,-7840 13710,-2710 9340,4850l-52160 90480 -6790 11750c-2140,-3240 -5110,-5870 -8560,-7770zm-87890 17910l-87860 -30c-20400,0 -26170,-15560 -26170,-32160 0,-16590 3550,-22500 12790,-38490 9700,-16810 19400,-33620 29110,-50420 9700,-16810 19410,-33620 29120,-50430 2980,-5170 13860,-9410 24220,-9410 26650,0 53320,0 79990,0 26660,0 53330,0 80040,0 10360,0 15740,5420 12090,11740 -9700,16820 -18080,31320 -27790,48130 -9700,16820 -19420,33630 -29120,50450 -2990,5170 -13920,9360 -24280,9360l-5480 0c640,-1450 1230,-2890 1780,-4290 1950,-5020 -430,-10680 -5370,-12800 -8550,-3680 -20440,-4690 -25590,4950 -2300,4050 -4570,8070 -6790,12130l-38580 -10 -76220 -30c-13710,0 -17420,17490 -17420,28190 0,13040 4830,22920 18580,22920l89270 0c-1870,3400 -3980,6870 -6320,10200zm-38990 -131290l148680 0c1800,0 3460,-1010 4360,-2560l11460 -19850c460,-790 720,-1670 720,-2580 0,-2750 -2250,-5000 -5000,-5000l-148480 -10c-2780,0 -5000,2230 -5000,5000 0,2760 2240,5000 5000,5000l3940 0c2750,0 5000,2260 5000,5000 0,2750 -2250,5000 -5000,5000l-15630 0c-2870,110 -5050,2060 -5050,5000 0,2780 2220,5000 5000,5000zm43650 15000c0,2750 2250,5000 5000,5000l88470 0c2740,0 5000,-2250 5000,-5000 0,-2750 -2250,-5000 -5000,-5000l-88470 0c-2750,0 -5000,2250 -5000,5000z"/>
   <path class="fil3" d="M145880 120000l20000 0c2760,0 5000,2250 5000,5000l0 0c0,2750 -2240,5000 -5000,5000l-20000 0c-2740,0 -5000,-2250 -5000,-5000l0 0c0,-2750 2260,-5000 5000,-5000zm256500 14450c-3720,-3670 -7060,-6970 -10010,-10030 8870,-3240 20530,-1790 20060,-7160 -620,-7120 -18120,-9110 -27740,-1380l-1220 -1560c-1820,-2370 -3170,-5450 -4160,-8790 5870,-4650 16230,-5440 13500,-11400 -1480,-3220 -8330,-2370 -15490,1200 -380,-3380 -520,-6600 -520,-9240l10 -1740c3530,-1660 7140,-2620 10620,-2470 14500,620 24000,13750 38750,29750 14750,16000 39130,37130 43130,42380 4000,5250 1240,9250 -3760,6000 -4990,-3250 -28490,-24000 -35490,-27500 -5240,-2610 -18010,-2790 -27680,1940zm-179630 53400l-107380 0c-8850,0 -11250,12100 -11250,19510 0,9020 3120,15860 12000,15860l90460 0c890,-1870 1690,-3650 2400,-5310 120,-290 230,-580 350,-870l-3020 0c-17460,0 -13480,-27300 1680,-27300l13790 0 970 -1890zm-99960 -27850l20000 0c2750,0 5000,2250 5000,5000l0 0c0,2750 -2250,5000 -5000,5000l-20000 0c-2750,0 -5000,-2250 -5000,-5000l0 0c0,-2750 2250,-5000 5000,-5000zm11550 -20000l20000 0c2750,0 5000,2250 5000,5000l0 0c0,2750 -2250,5000 -5000,5000l-20000 0c-2750,0 -5000,-2250 -5000,-5000l0 0c0,-2750 2250,-5000 5000,-5000z"/>
  </g>
 </g>
</svg>
