<?xml version="1.0" encoding="UTF-8"?>
<!DOCTYPE svg PUBLIC "-//W3C//DTD SVG 1.1//EN" "http://www.w3.org/Graphics/SVG/1.1/DTD/svg11.dtd">
<!-- Creator: CorelDRAW 2018 (64 Bit) -->
<svg xmlns="http://www.w3.org/2000/svg" xml:space="preserve" width="65px" height="36px" version="1.1" style="shape-rendering:geometricPrecision; text-rendering:geometricPrecision; image-rendering:optimizeQuality; fill-rule:evenodd; clip-rule:evenodd"
viewBox="0 0 650000 359990"
 xmlns:xlink="http://www.w3.org/1999/xlink">
 <defs>
  <style type="text/css">
   <![CDATA[
    .fil1 {fill:#312142}
    .fil0 {fill:#353378}
    .fil2 {fill:#666666}
   ]]>
  </style>
 </defs>
 <g id="Capa_x0020_1">
  <metadata id="CorelCorpID_0Corel-Layer"/>
  <g id="_6c">
   <path class="fil0" d="M325000 360000c179490,0 325000,-80590 325000,-180000 0,-99420 -145510,-180000 -325000,-180000 -179490,0 -325000,80580 -325000,180000 0,99410 145510,180000 325000,180000z"/>
   <path class="fil1" d="M89990 90000l200000 0 0 -30000c0,-5500 4500,-10000 10000,-10000l180010 0c5500,0 10000,4500 10000,10000l0 230000c0,5500 -4500,10000 -10000,10000l-180010 0c-5500,0 -10000,-4500 -10000,-10000l0 -110000 -200000 0c-5500,0 -10000,-4500 -10000,-10000l0 -70000c0,-5500 4500,-10000 10000,-10000z"/>
   <path class="fil2" d="M399960 180990c24650,0 31390,-6800 31390,-35990 0,-29190 -11330,-36780 -31390,-36780 -14060,0 -21790,5740 -25530,14460 -1070,2480 -1460,7020 1870,8840 3330,1820 7220,-460 8280,-2370 3160,-5600 6340,-9160 15410,-9160 12780,0 20010,5940 20010,25010 0,19070 -5030,25000 -19990,25000 -14960,0 -20010,-7320 -20010,-20000l19990 0 0 -10000 -19810 0 -8540 0c-1120,0 -2520,720 -2520,2160 0,28160 6180,38830 30840,38830zm-309970 -80990l210000 0 0 -40000 180010 0 0 230000 -180010 0 0 -120000 -210000 0 0 -70000zm220010 60000l0 -50000 39990 0 0 10000 -29990 0 0 10000 19990 0 0 10000 -19990 0 0 10000 29990 0 0 10000 -39990 0zm-40010 0l0 -10000 10000 0 0 -30000 -10000 0 0 -10000 30000 0 0 10000 -10000 0 0 30000 10000 0 0 10000 -30000 0zm-60000 -30000l0 -20000 10000 0 0 15000 15000 25000 15000 -25000 0 -15000 10010 0 0 20000 -20010 30000 -10000 0 -20000 -30000zm-40000 -20000l20000 0c5530,0 10010,4480 10010,10000l0 0 0 30000 0 10c-10,5510 -4490,9990 -10010,9990l-20000 0c-5520,0 -9990,-4480 -10000,-10000l0 0 0 -30000c0,-5520 4480,-10000 10000,-10000zm0 10000l20000 0 0 30000 -20000 0 0 -30000zm-60000 40000l-10000 0 0 -50000 10000 0 15000 20000 15000 -20000 10000 0 0 50000 -10000 0 0 -32500 -15000 17500 -15000 -17500 0 32500zm204790 120000c42120,-38430 55730,-60650 55730,-73980 0,-9300 -19360,-24780 -32440,-36020l21920 0 0 -57980c22080,-17950 46980,-20510 45720,-31170 -1050,-8870 -26570,1060 -52650,19150l-43060 0 0 -30000 159990 0 0 210000 -155210 0zm-4780 -93740c10830,11420 29290,24730 29290,29480 0,5650 -2250,19970 -29290,47900l0 -77380zm120030 2750c-24650,0 -31390,6800 -31390,35990 0,29190 11330,36780 31390,36780 14060,0 21790,-5750 25530,-14470 1070,-2470 1460,-7020 -1870,-8840 -3330,-1810 -7220,470 -8280,2370 -3160,5600 -6340,9160 -15410,9160 -12780,0 -20010,-5930 -20010,-25000 0,-19070 5030,-25000 19990,-25000 14960,0 20010,7320 20010,20000l-19990 0 0 10000 19810 0 8540 0c1120,0 2520,-720 2520,-2160 0,-28160 -6180,-38830 -30840,-38830zm14880 -99370c3660,0 5090,1360 5090,5370 0,4000 -1200,5360 -5090,5360 -3900,0 -5100,-1360 -5100,-5360 0,-4010 1430,-5370 5100,-5370zm5090 85310l0 -60360c0,-4000 -1430,-5370 -5090,-5370 -3670,0 -5100,1370 -5100,5370l0 60360c0,3990 1200,5370 5100,5370 3890,0 5090,-1370 5090,-5370z"/>
  </g>
 </g>
</svg>
