<?xml version="1.0" encoding="UTF-8"?>
<!DOCTYPE svg PUBLIC "-//W3C//DTD SVG 1.1//EN" "http://www.w3.org/Graphics/SVG/1.1/DTD/svg11.dtd">
<!-- Creator: CorelDRAW 2018 (64 Bit) -->
<svg xmlns="http://www.w3.org/2000/svg" xml:space="preserve" width="116px" height="20px" version="1.1" style="shape-rendering:geometricPrecision; text-rendering:geometricPrecision; image-rendering:optimizeQuality; fill-rule:evenodd; clip-rule:evenodd"
viewBox="0 0 1160000 200000"
 xmlns:xlink="http://www.w3.org/1999/xlink">
 <defs>
  <style type="text/css">
   <![CDATA[
    .fil0 {fill:#4B46C8}
    .fil2 {fill:#FFB437;fill-rule:nonzero}
    .fil1 {fill:white;fill-rule:nonzero}
   ]]>
  </style>
 </defs>
 <g id="Capa_x0020_1">
  <metadata id="CorelCorpID_0Corel-Layer"/>
  <polygon class="fil0" points="39640,34370 39640,34370 231380,200620 1160730,200620 1160730,-630 -730,-620 "/>
  <path class="fil1" d="M323260 154960l31840 0 0 -110880 -22240 0 0 42400c0,20000 2240,36160 3840,46400l-28150 -88800 -32810 0 0 110880 22250 0 0 -41760c0,-19520 -2570,-37920 -3840,-47360l29110 89120zm88010 -129440c-8810,0 -15050,6240 -15050,14240 0,8160 6240,14240 15050,14240 8800,0 14880,-6080 14880,-14240 0,-8000 -6080,-14240 -14880,-14240zm15190 44480l-48480 0 0 17280 23210 0 0 50400 -24000 0 0 17280 71030 0 0 -17280 -21760 0 0 -67680zm124320 0l-25590 0 -17280 65600 -16480 -65600 -27360 0 28630 84960 29760 0 28320 -84960zm37770 49920l55030 0c320,-2560 480,-6240 480,-9120 0,-27360 -15520,-43680 -39830,-43680 -26720,0 -41450,20320 -41450,45440 0,26400 15050,45120 44160,45120 14400,0 25920,-4800 33930,-11680l-10080 -13760c-6720,4320 -14080,7040 -21760,7040 -10880,0 -18720,-5440 -20480,-19360zm15680 -35840c10720,0 15040,8160 15190,20480l-31200 0c1130,-14080 7050,-20480 16010,-20480zm102720 -47840l-50240 0 0 17280 24960 0 0 71520c0,20000 9270,32640 29760,32640 10880,0 18870,-2560 24480,-5600l-5920 -16960c-3530,1440 -7680,2560 -12170,2560 -6720,0 -10870,-2560 -10870,-9440l0 -92000z"/>
  <path id="_22" class="fil2" d="M887590 41200c-17920,0 -29440,7520 -37770,19040l15360 11680c5930,-7840 11690,-11200 20010,-11200 9600,0 14880,5600 14880,14560 0,13280 -11680,26400 -48000,61760l0 17920 73600 0 2720 -19360 -47370 0c33770,-30080 44800,-44640 44800,-62560 0,-16960 -12950,-31840 -38230,-31840zm96000 0c-17920,0 -29440,7520 -37760,19040l15360 11680c5920,-7840 11680,-11200 20000,-11200 9600,0 14880,5600 14880,14560 0,13280 -11680,26400 -48000,61760l0 17920 73600 0 2720 -19360 -47360 0c33760,-30080 44790,-44640 44790,-62560 0,-16960 -12950,-31840 -38230,-31840z"/>
 </g>
</svg>
