<?xml version="1.0" encoding="UTF-8"?>
<!DOCTYPE svg PUBLIC "-//W3C//DTD SVG 1.1//EN" "http://www.w3.org/Graphics/SVG/1.1/DTD/svg11.dtd">
<!-- Creator: CorelDRAW 2018 (64 Bit) -->
<svg xmlns="http://www.w3.org/2000/svg" xml:space="preserve" width="160px" height="133px" version="1.1" style="shape-rendering:geometricPrecision; text-rendering:geometricPrecision; image-rendering:optimizeQuality; fill-rule:evenodd; clip-rule:evenodd"
viewBox="0 0 2862410 2380680"
 xmlns:xlink="http://www.w3.org/1999/xlink">
 <defs>
  <style type="text/css">
   <![CDATA[
    .fil2 {fill:#4B46C8}
    .fil3 {fill:#4B46C8}
    .fil6 {fill:white}
    .fil1 {fill:#4B46C8;fill-rule:nonzero}
    .fil0 {fill:#4B46C8;fill-rule:nonzero}
    .fil5 {fill:#FFB437;fill-rule:nonzero}
    .fil4 {fill:white;fill-rule:nonzero}
   ]]>
  </style>
 </defs>
 <g id="Cosas">
  <metadata id="CorelCorpID_0Corel-Layer"/>
  <g id="_1683232114496">
   <g>
    <polygon class="fil0" points="2757600,1344020 2792160,1344020 2792160,1378590 2826730,1378590 2826730,1516840 2757600,1516840 "/>
    <polygon class="fil0" points="2653900,1344020 2723030,1344020 2723030,1516840 2653900,1516840 "/>
    <polygon class="fil0" points="2550210,1344020 2619340,1344020 2619340,1482280 2584780,1482280 2584780,1516840 2550210,1516840 "/>
    <polygon class="fil0" points="2446520,1344020 2515650,1344020 2515650,1516840 2481080,1516840 2481080,1482280 2446520,1482280 "/>
    <polygon class="fil0" points="2342820,1413150 2342820,1344020 2411950,1344020 2411950,1378590 2377390,1378590 2377390,1413150 "/>
    <polygon class="fil0" points="2342820,1516840 2342820,1447720 2377390,1447720 2377390,1482280 2411950,1482280 2411950,1516840 "/>
    <polygon class="fil0" points="2239140,1516840 2239140,1344020 2308260,1344020 2308260,1516840 "/>
    <path class="fil1" d="M140 2368750c7910,63520 522820,-130160 930520,-499200 407710,-369040 498220,-653830 498220,-761340 0,-107520 -374270,-343830 -374270,-404120 0,-60280 46260,-124210 220490,-319790 174240,-195570 370330,-292170 346670,-337910 -23660,-45750 -226720,56070 -459110,290460 -232390,234400 -331870,352540 -331870,461280 0,108750 383590,366310 383590,430570 0,64260 -81890,304610 -481970,661590 -400090,356990 -740180,414940 -732270,478460z"/>
    <path class="fil2" d="M1324090 711620c18980,60770 75690,104870 142720,104870 82570,0 149500,-66920 149500,-149490 0,-82570 -66920,-149500 -149500,-149500 -42380,0 -82310,17730 -110770,49110 -16520,18200 -44830,19580 -63030,3070 -18200,-16510 -19580,-44830 -3070,-63030 45370,-50010 109300,-78390 176870,-78390 131830,0 238740,106910 238740,238740 0,131830 -106910,238740 -238740,238740 -131830,0 -238740,-106910 -238740,-238740 0,-24570 20050,-44620 44630,-44620l145570 0c24580,0 44620,20050 44620,44620 0,24580 -20040,44620 -44620,44620l-94180 0z"/>
    <path class="fil2" d="M1729250 872080l98170 -281130c8100,-23200 33630,-35510 56840,-27410 23200,8100 35510,33630 27410,56840l-98180 281130c-8100,23200 -33630,35510 -56830,27410 -23200,-8100 -35520,-33630 -27410,-56840z"/>
    <circle class="fil3" cx="1869540" cy="462870" r="44620"/>
    <path class="fil2" d="M1869210 1216050c-18980,-60770 -75700,-104870 -142730,-104870 -82570,0 -149490,66920 -149490,149490 0,82580 66920,149500 149490,149500 42390,0 82320,-17730 110770,-49100 16520,-18210 44830,-19580 63040,-3070 18200,16510 19570,44830 3070,63030 -45370,50010 -109310,78380 -176880,78380 -131830,0 -238730,-106910 -238730,-238740 0,-131820 106910,-238730 238730,-238730 131830,0 238740,106900 238740,238730 0,24580 -20040,44620 -44620,44620l-145580 0c-24580,0 -44620,-20040 -44620,-44620 0,-24570 20040,-44620 44620,-44620l94190 0z"/>
    <path class="fil2" d="M1988930 1465770l98170 -281130c8100,-23210 33630,-35520 56840,-27420 23200,8110 35510,33640 27410,56840l-98180 281140c-8100,23200 -33630,35510 -56830,27410 -23200,-8110 -35520,-33630 -27410,-56840z"/>
    <circle class="fil3" cx="2129220" cy="1056550" r="44620"/>
   </g>
   <g>
    <polygon class="fil4" points="2793280,1308330 2827850,1308330 2827850,1342900 2862410,1342900 2862410,1481150 2793280,1481150 "/>
    <polygon class="fil4" points="2689590,1308330 2758720,1308330 2758720,1481150 2689590,1481150 "/>
    <polygon class="fil4" points="2585900,1308330 2655030,1308330 2655030,1446600 2620460,1446600 2620460,1481150 2585900,1481150 "/>
    <polygon class="fil4" points="2482210,1308330 2551330,1308330 2551330,1481150 2516770,1481150 2516770,1446600 2482210,1446600 "/>
    <polygon class="fil4" points="2378510,1377470 2378510,1308330 2447640,1308330 2447640,1342900 2413080,1342900 2413080,1377470 "/>
    <polygon class="fil4" points="2378510,1481150 2378510,1412030 2413080,1412030 2413080,1446600 2447640,1446600 2447640,1481150 "/>
    <polygon class="fil4" points="2274830,1481150 2274830,1308330 2343940,1308330 2343940,1481150 "/>
    <path class="fil5" d="M35830 2333060c7910,63530 522810,-130150 930520,-499200 407710,-369040 498220,-653830 498220,-761340 0,-107520 -374280,-343830 -374280,-404110 0,-60290 46260,-124220 220500,-319790 174240,-195580 370330,-292170 346670,-337920 -23660,-45750 -226720,56070 -459110,290460 -232390,234400 -331870,352540 -331870,461280 0,108750 383590,366320 383590,430570 0,64260 -81890,304610 -481970,661600 -400090,356980 -740180,414930 -732270,478450z"/>
    <path class="fil6" d="M1359780 675930c18970,60780 75690,104880 142720,104880 82570,0 149490,-66930 149490,-149500 0,-82570 -66910,-149490 -149490,-149490 -42390,0 -82320,17730 -110770,49100 -16520,18200 -44830,19580 -63030,3070 -18210,-16510 -19580,-44830 -3070,-63030 45370,-50010 109300,-78380 176870,-78380 131830,0 238730,106900 238730,238730 0,131830 -106900,238740 -238730,238740 -131830,0 -238740,-106910 -238740,-238740 0,-24570 20050,-44620 44620,-44620l145580 0c24580,0 44620,20050 44620,44620 0,24580 -20040,44620 -44620,44620l-94180 0z"/>
    <path class="fil6" d="M1764930 836400l98180 -281140c8100,-23200 33630,-35510 56830,-27410 23210,8110 35520,33630 27420,56840l-98180 281130c-8100,23200 -33630,35520 -56840,27410 -23200,-8100 -35510,-33630 -27410,-56830z"/>
    <circle class="fil6" cx="1905230" cy="427180" r="44620"/>
    <path class="fil6" d="M1904890 1180360c-18970,-60770 -75690,-104870 -142720,-104870 -82570,0 -149490,66930 -149490,149500 0,82570 66910,149490 149490,149490 42390,0 82320,-17730 110770,-49100 16520,-18200 44830,-19580 63030,-3070 18210,16510 19580,44830 3070,63030 -45370,50010 -109300,78380 -176870,78380 -131830,0 -238730,-106900 -238730,-238730 0,-131830 106900,-238740 238730,-238740 131830,0 238740,106910 238740,238740 0,24570 -20050,44620 -44620,44620l-145580 0c-24580,0 -44620,-20050 -44620,-44620 0,-24580 20040,-44630 44620,-44630l94180 0z"/>
    <path class="fil6" d="M2024610 1430080l98180 -281130c8100,-23200 33630,-35520 56830,-27410 23210,8100 35520,33630 27410,56830l-98170 281140c-8100,23200 -33630,35510 -56840,27410 -23200,-8100 -35510,-33630 -27410,-56840z"/>
    <circle class="fil6" cx="2164910" cy="1020860" r="44620"/>
   </g>
  </g>
 </g>
</svg>
