<?xml version="1.0" encoding="UTF-8"?>
<!DOCTYPE svg PUBLIC "-//W3C//DTD SVG 1.1//EN" "http://www.w3.org/Graphics/SVG/1.1/DTD/svg11.dtd">
<!-- Creator: CorelDRAW 2018 (64 Bit) -->
<svg xmlns="http://www.w3.org/2000/svg" xml:space="preserve" width="208px" height="26px" version="1.1" style="shape-rendering:geometricPrecision; text-rendering:geometricPrecision; image-rendering:optimizeQuality; fill-rule:evenodd; clip-rule:evenodd"
viewBox="0 0 10293650 1280130"
 xmlns:xlink="http://www.w3.org/1999/xlink">
 <defs>
  <style type="text/css">
   <![CDATA[
    .fil1 {fill:gray}
    .fil0 {fill:gray;fill-rule:nonzero}
   ]]>
  </style>
 </defs>
 <g id="Cosas">
  <metadata id="CorelCorpID_0Corel-Layer"/>
  <path class="fil0" d="M1946170 575010c-84110,0 -156050,65060 -156050,187780 0,122740 69300,188330 158160,188330 51850,0 86770,-17980 108980,-39670l-23800 -29630c-19570,15350 -43900,30160 -84630,30160 -62440,0 -110570,-40730 -110570,-149190 0,-111070 51840,-149160 111090,-149160 28040,0 53420,7400 76700,26970l25930 -30160c-29090,-22740 -58200,-35430 -105810,-35430zm287250 85700c-78290,0 -120620,59780 -120620,145480 0,87790 41800,144930 120100,144930 77750,0 120070,-59780 120070,-145480 0,-87800 -41250,-144930 -119550,-144930zm0 36500c47610,0 71420,34920 71420,108430 0,74600 -23810,108980 -71940,108980 -48160,0 -71960,-34380 -71960,-108430 0,-74060 24350,-108980 72480,-108980zm335910 -36500c-33320,0 -62960,16380 -83050,44950l-3710 -39140 -38090 0 0 390930 44440 -5290 0 -132780c19050,21160 43380,31740 74060,31740 72470,0 107390,-60830 107390,-145480 0,-87270 -26980,-144930 -101040,-144930zm-10590 35970c43920,0 63490,36500 63490,108960 0,74060 -23280,108460 -69300,108460 -26440,0 -49200,-13240 -64010,-34920l0 -138070c15330,-22220 39140,-44430 69820,-44430zm434830 -30160l-46020 0 -78820 244930 -79860 -244930 -47090 0 96800 278780 14820 0c-14280,42850 -31210,66660 -88340,76710l6340 35440c74050,-7930 105260,-53420 124850,-110550l97320 -280380zm274020 -5810c-50250,0 -78820,26450 -99980,71940l-8450 -66130 -77250 0 0 34380 43920 0 0 210030 -43920 0 0 34370 144950 0 0 -34370 -56610 0 0 -117450c18000,-61350 48680,-92040 91530,-92040l2640 0 0 59780 35970 0 6360 -94700c-12170,-3160 -23810,-5810 -39160,-5810zm234880 -124330c-19040,0 -31750,13240 -31750,31210 0,18000 12710,31230 31750,31230 19570,0 32790,-13230 32790,-31230 0,-17970 -13220,-31210 -32790,-31210zm35430 130140l-127480 0 0 35450 83060 0 0 207890 -85700 0 0 35440 208410 0 0 -35440 -78290 0 0 -243340zm403090 -29090c-32780,13760 -57130,23280 -126950,23280 -66130,0 -111080,40190 -111080,96800 0,35970 14810,60300 46540,76700 -20090,13230 -30680,31210 -30680,48680 0,28040 21690,52890 70360,52890l49730 0c35430,0 62420,13240 62420,39680 0,30140 -26990,46020 -87820,46020 -62410,0 -77220,-15330 -77220,-48130l-40210 0c0,56600 28570,84100 117430,84100 84630,0 132790,-30160 132790,-84630 0,-43390 -42330,-75650 -98410,-75650l-50250 0c-28570,0 -37020,-10590 -37020,-23810 0,-10040 6330,-20630 14280,-26990 12170,4240 23260,5830 41780,5830 66130,0 104740,-39680 104740,-94690 0,-31740 -15850,-55540 -48660,-70350 31210,0 58190,-540 81470,-7950l-13240 -41780zm-127480 56070c41260,0 61900,21680 61900,63480 0,41260 -21160,65590 -60850,65590 -45490,0 -66110,-26970 -66110,-65060 0,-37570 20100,-64010 65060,-64010zm262390 -143360l-44450 4760 0 390400 44450 0 0 -203130c14800,-21680 43370,-46030 74580,-46030 33330,0 48680,14280 48680,47610l0 201550 44420 0 0 -202080c0,-51840 -23800,-82510 -78290,-82510 -33330,0 -67180,15330 -89390,44430l0 -155000zm494600 380880l-17450 -30160c-14810,7950 -32810,13240 -53440,13240 -38090,0 -53420,-16410 -53420,-47090l0 -165570 90980 0 5830 -34920 -96810 0 0 -68240 -44450 5300 0 62940 -63990 0 0 34920 63990 0 0 166100c0,48670 33870,83580 93650,83580 26450,0 55540,-7410 75110,-20100zm457580 75130l132780 0 0 -37570 -90460 0 0 -416320 90460 0 0 -38090 -132780 0 0 491980zm399380 -93120c-48130,0 -83060,-31210 -83060,-105790 0,-73540 34400,-108980 82540,-108980 24850,0 48130,8470 71940,24350l21680 -29110c-25920,-21690 -57130,-32790 -93100,-32790 -83060,0 -131190,62950 -131190,146530 0,87290 47610,143880 131190,143880 32280,0 69840,-12690 93650,-33330l-21170 -29090c-21160,14280 -44440,24330 -72480,24330zm358130 -398860l-132770 0 0 38090 90460 0 0 416320 -90460 0 0 37570 132770 0 0 -491980zm634780 34920l0 144950c-19040,-21710 -42840,-33330 -75100,-33330 -68250,0 -108980,61900 -108980,145480 0,86740 33330,144930 106330,144930 30140,0 58190,-13220 78820,-42310l4240 36490 39140 0 0 -390920 -44450 -5290zm-63460 147590c25920,0 48130,13220 63460,35970l0 138600c-15330,23280 -37010,44440 -68770,44440 -43900,0 -67180,-37040 -67180,-109500 0,-73540 26450,-109510 72490,-109510zm413660 187780l0 -133830c0,-55020 -34920,-89920 -104220,-89920 -27490,0 -57130,5290 -91500,17450l12160 33850c28570,-10040 53960,-14280 72470,-14280 41270,0 66120,14810 66120,55540l0 22760 -41250 0c-84110,0 -130140,32270 -130140,89390 0,51840 33870,85700 89930,85700 35970,0 67180,-13220 87290,-39140 7410,25400 26980,36490 50780,39680l11120 -31750c-15880,-4760 -22760,-13220 -22760,-35450zm-115310 33330c-36520,0 -53440,-17980 -53440,-52900 0,-35970 22230,-58180 83580,-58180l40200 0 0 71420c-16400,24850 -42840,39660 -70340,39660zm232740 27510l44450 0 0 -202600c14800,-22210 42850,-46560 75650,-46560 41780,0 47610,22750 47610,79890l0 169270 44420 0 0 -202080c0,-51840 -23800,-82510 -78290,-82510 -32790,0 -69830,16380 -92040,44950l-3710 -39140 -38090 0 0 278780zm544330 -307870c-32780,13760 -57130,23280 -126950,23280 -66130,0 -111080,40190 -111080,96800 0,35970 14810,60300 46540,76700 -20090,13230 -30680,31210 -30680,48680 0,28040 21690,52890 70360,52890l49730 0c35430,0 62420,13240 62420,39680 0,30140 -26990,46020 -87820,46020 -62410,0 -77220,-15330 -77220,-48130l-40210 0c0,56600 28570,84100 117430,84100 84630,0 132790,-30160 132790,-84630 0,-43390 -42330,-75650 -98410,-75650l-50250 0c-28570,0 -37020,-10590 -37020,-23810 0,-10040 6330,-20630 14280,-26990 12170,4240 23260,5830 41780,5830 66130,0 104740,-39680 104740,-94690 0,-31740 -15850,-55540 -48660,-70350 31210,0 58190,-540 81470,-7950l-13240 -41780zm-127480 56070c41260,0 61900,21680 61900,63480 0,41260 -21160,65590 -60850,65590 -45490,0 -66110,-26970 -66110,-65060 0,-37570 20100,-64010 65060,-64010zm324280 -32790c-78300,0 -120620,59780 -120620,145480 0,87790 41800,144930 120090,144930 77750,0 120080,-59780 120080,-145480 0,-87800 -41260,-144930 -119550,-144930zm0 36500c47610,0 71410,34920 71410,108430 0,74600 -23800,108980 -71940,108980 -48150,0 -71960,-34380 -71960,-108430 0,-74060 24350,-108980 72490,-108980zm692970 -148120c-57660,0 -101560,32260 -101560,83580l0 55540 -66130 0 0 35450 66130 0 0 221640 44950 0 0 -221640 89410 0 4760 -35450 -94170 0 0 -56610c0,-30680 19590,-46010 58200,-46010 21160,0 41780,3710 59780,11640l14280 -33330c-21690,-9000 -45490,-14810 -75650,-14810zm352840 335370l0 -133830c0,-55020 -34920,-89920 -104220,-89920 -27500,0 -57130,5290 -91510,17450l12170 33850c28560,-10040 53960,-14280 72460,-14280 41280,0 66130,14810 66130,55540l0 22760 -41250 0c-84110,0 -130140,32270 -130140,89390 0,51840 33870,85700 89930,85700 35970,0 67180,-13220 87290,-39140 7410,25400 26970,36490 50780,39680l11110 -31750c-15870,-4760 -22750,-13220 -22750,-35450zm-115310 33330c-36520,0 -53440,-17980 -53440,-52900 0,-35970 22230,-58180 83580,-58180l40200 0 0 71420c-16400,24850 -42850,39660 -70340,39660zm359170 -4760c-48130,0 -83050,-31210 -83050,-105790 0,-73540 34390,-108980 82530,-108980 24850,0 48130,8470 71940,24350l21680 -29110c-25920,-21690 -57130,-32790 -93100,-32790 -83050,0 -131190,62950 -131190,146530 0,87290 47610,143880 131190,143880 32280,0 69840,-12690 93650,-33330l-21170 -29090c-21160,14280 -44440,24330 -72480,24330zm412620 17990l-17460 -30160c-14800,7950 -32800,13240 -53440,13240 -38080,0 -53420,-16410 -53420,-47090l0 -165570 90990 0 5830 -34920 -96820 0 0 -68240 -44440 5300 0 62940 -63990 0 0 34920 63990 0 0 166100c0,48670 33870,83580 93650,83580 26450,0 55540,-7410 75110,-20100zm202080 -270310c-78300,0 -120620,59780 -120620,145480 0,87790 41800,144930 120090,144930 77750,0 120080,-59780 120080,-145480 0,-87800 -41260,-144930 -119550,-144930zm0 36500c47610,0 71410,34920 71410,108430 0,74600 -23800,108980 -71940,108980 -48150,0 -71960,-34380 -71960,-108430 0,-74060 24350,-108980 72490,-108980zm399380 -36500c-50260,0 -78820,26450 -99980,71940l-8460 -66130 -77240 0 0 34380 43920 0 0 210030 -43920 0 0 34370 144950 0 0 -34370 -56610 0 0 -117450c17990,-61350 48680,-92040 91530,-92040l2640 0 0 59780 35970 0 6350 -94700c-12160,-3160 -23800,-5810 -39150,-5810zm360770 5810l-46020 0 -78820 244930 -79870 -244930 -47080 0 96790 278780 14830 0c-14290,42850 -31210,66660 -88340,76710l6330 35440c74060,-7930 105270,-53420 124860,-110550l97320 -280380z"/>
  <path class="fil1" d="M26840 864760c-17880,-57210 -26840,-116740 -26840,-176660 0,-326990 265020,-592020 592010,-592020 59930,0 119460,8960 176670,26840 13030,4070 20340,18020 16270,31060 -4090,13030 -18030,20340 -31060,16270 -52430,-16380 -106950,-24590 -161880,-24590 -299620,0 -542430,242810 -542430,542440 0,54920 8210,109440 24590,161870 4070,13030 -3240,26970 -16270,31060 -13050,4070 -26990,-3240 -31060,-16270zm1029130 -675650l181800 -181860c9650,-9650 25400,-9650 35050,0 9650,9660 9670,25400 0,35060l-181800 181850c-9650,9650 -25400,9650 -35050,0 -9650,-9650 -9670,-25400 0,-35050zm-877530 774860c0,-76040 61650,-137690 137700,-137690 76040,0 137710,61650 137710,137690 0,76050 -61670,137720 -137710,137720 -76050,0 -137700,-61670 -137700,-137720zm50910 0c0,47950 38840,86810 86790,86810 47950,0 86800,-38860 86800,-86810 0,-47940 -38850,-86780 -86800,-86780 -47950,0 -86790,38840 -86790,86780zm224970 -275870c0,-76050 61650,-137700 137690,-137700 76050,0 137720,61650 137720,137700 0,76040 -61670,137710 -137720,137710 -76040,0 -137690,-61670 -137690,-137710zm50910 0c0,47940 38840,86800 86780,86800 47950,0 86810,-38860 86810,-86800 0,-47950 -38860,-86790 -86810,-86790 -47940,0 -86780,38840 -86780,86790zm224970 -275880c0,-76040 61650,-137690 137690,-137690 76050,0 137710,61650 137710,137690 0,76050 -61660,137710 -137710,137710 -76040,0 -137690,-61660 -137690,-137710zm50910 0c0,47950 38830,86810 86780,86810 47950,0 86810,-38860 86810,-86810 0,-47950 -38860,-86780 -86810,-86780 -47950,0 -86780,38830 -86780,86780zm376100 99230c17860,57210 26840,116720 26840,176650 0,326990 -265040,592030 -592040,592030 -59920,0 -119430,-8980 -176640,-26840 -13030,-4090 -20340,-18030 -16270,-31060 4070,-13030 18010,-20340 31060,-16270 52410,16380 106950,24590 161850,24590 299630,0 542460,-242830 542460,-542450 0,-54900 -8210,-109450 -24590,-161860 -4070,-13040 3240,-26990 16270,-31060 13030,-4060 26970,3250 31060,16270z"/>
 </g>
</svg>
