<?xml version="1.0" encoding="UTF-8"?>
<!DOCTYPE svg PUBLIC "-//W3C//DTD SVG 1.1//EN" "http://www.w3.org/Graphics/SVG/1.1/DTD/svg11.dtd">
<!-- Creator: CorelDRAW 2018 (64 Bit) -->
<svg xmlns="http://www.w3.org/2000/svg" xml:space="preserve" width="65px" height="36px" version="1.1" style="shape-rendering:geometricPrecision; text-rendering:geometricPrecision; image-rendering:optimizeQuality; fill-rule:evenodd; clip-rule:evenodd"
viewBox="0 0 650000 359990"
 xmlns:xlink="http://www.w3.org/1999/xlink">
 <defs>
  <style type="text/css">
   <![CDATA[
    .fil1 {fill:#1E876E}
    .fil0 {fill:#64FAD7}
    .fil2 {fill:white;fill-rule:nonzero}
   ]]>
  </style>
 </defs>
 <g id="Capa_x0020_1">
  <metadata id="CorelCorpID_0Corel-Layer"/>
  <g id="_7b">
   <path class="fil0" d="M325000 359990c179490,0 325000,-80580 325000,-180000 0,-99410 -145510,-180000 -325000,-180000 -179490,0 -325000,80590 -325000,180000 0,99420 145510,180000 325000,180000z"/>
   <path class="fil1" d="M213770 174360c-4180,-5320 -17620,-16560 -21860,-20420 -8310,-7540 -26250,-22800 -26250,-34780 0,-23790 30910,-51260 47210,-65340 13130,-11350 75580,-56890 91780,-34630 1380,1900 2220,4110 2490,6440 220,1850 150,3730 -230,5560 -2070,10140 -12780,16020 -21010,20810 -10600,6160 -20480,11960 -29750,20140 -6660,5880 -25890,25320 -28930,36150 4390,4870 16010,14010 19920,17480 1960,1740 4200,3740 6510,5940 -3370,-7840 -4520,-17840 -4520,-29550 0,-4290 2210,-7920 5480,-10070 -1460,-4220 -1200,-9090 630,-13350 6240,-14540 19370,-20520 34720,-20520 14160,0 24080,3760 30660,10710 470,-1520 1140,-2890 2000,-4080 -1830,-2550 -2810,-5890 -2810,-9850 0,-9330 5690,-15360 15100,-15360 9420,0 15090,6030 15090,15360 0,3960 -970,7300 -2810,9850 1830,2540 2810,5850 2810,9740l0 57480c1090,-7640 6510,-12430 14900,-12430 9420,0 15090,6030 15090,15370 0,3950 -980,7290 -2810,9840 1830,2540 2810,5850 2810,9740l0 60360c0,9440 -5540,15360 -15090,15360 -8100,0 -13310,-4250 -14720,-11290 -7050,8940 -17890,12750 -30140,12750 -30560,0 -41400,-17530 -41400,-46780 0,-15280 1940,-26540 7680,-34090 -8700,-390 -15470,-2200 -20700,-5270 2690,4260 4470,8720 4470,13150 0,31370 -40390,71610 -61540,90760 -17930,16230 -40250,32200 -62960,40960 -11250,4330 -38420,11840 -40490,-7600 -260,-2380 -20,-4760 790,-7020 3130,-8760 15150,-13110 22860,-17210 16200,-8610 30490,-19210 44170,-31410 11550,-10310 38870,-34660 40850,-52900zm356220 -4370c5520,10 10010,4500 10010,10000l0 40000c0,5510 -4490,10000 -10000,10000l-170000 0c-5510,0 -10000,-4490 -10000,-10000l0 -50000c0,-5500 4490,-9990 10000,-9990l160000 0c5500,0 9990,4490 9990,9990zm-139990 70000l50000 0 0 29990 -20000 0 0 10010 -210000 0 0 -40000 30000 0 0 10000 10000 0 0 -10000 140000 0z"/>
   <path class="fil2" d="M320040 149010c-24660,0 -31400,6790 -31400,35980 0,29190 11340,36790 31400,36790 14050,0 21790,-5750 25530,-14470 1060,-2470 1450,-7020 -1880,-8840 -3330,-1820 -7210,470 -8280,2370 -3160,5600 -6330,9160 -15410,9160 -12780,0 -20000,-5930 -20000,-25010 0,-19070 5030,-25000 19980,-25000 14960,0 20020,7320 20020,20010l-20000 0 0 9990 19820 0 8540 0c1110,0 2510,-710 2510,-2160 0,-28160 -6170,-38820 -30830,-38820zm-205000 132830c1120,10450 41820,1000 86800,-39710 44980,-40710 58260,-68540 58260,-83350 0,-14820 -43260,-41870 -43260,-48520 0,-6650 8800,-24530 32690,-45610 23900,-21090 49060,-26160 47680,-37850 -1380,-11690 -45030,6260 -77800,34580 -32780,28320 -43750,45780 -43750,57780 0,11990 48220,46070 48220,53160 0,7090 -170,23020 -44310,62400 -44130,39380 -65650,36660 -64530,47120zm344960 -21850l0 -10000 10000 0 0 10000 -10000 0zm-200000 10000l0 -20000 10000 0 0 10000 10000 0 0 10000 -20000 0zm30000 0l0 -10000 10000 0 0 -10000 10000 0 0 20000 -20000 0zm30000 0l0 -20000 10000 0 0 10000 10000 0 0 -10000 10000 0 0 10000 -10000 0 0 10000 -20000 0zm40000 0l0 -20000 10000 0 0 20000 -10000 0zm20000 0l0 -20000 10000 0 0 10000 10000 0 0 -10000 10000 0 0 10000 10000 0 0 -10000 10000 0 0 20000 -20000 0 0 -10000 -10000 0 0 10000 -20000 0zm60000 0l0 -20000 10000 0 0 20000 -10000 0zm-40000 -50000l0 -50000 20000 0 0 50000 -20000 0zm30000 0l0 -19990 10000 0 0 10000 10000 0 0 9990 -20000 0zm0 -30000l0 -20000 20000 0 0 10000 -10000 0 0 10000 -10000 0zm30000 -20000l20000 0 0 50000 -10010 0 0 -9990 -9990 0 0 -40010zm30000 0l20000 0 0 40010 -10000 0 0 9990 -10000 0 0 -50000zm30000 0l20000 0 0 50000 -20000 0 0 -50000zm30000 0l10000 0 0 10000 10000 0 0 40000 -20000 0 0 -50000zm-180010 44960l0 -60360c0,-4010 -1430,-5370 -5090,-5370 -3670,0 -5100,1360 -5100,5370l0 60360c0,3990 1200,5370 5100,5370 3890,0 5090,-1370 5090,-5370zm-5090 -85320c3660,0 5090,1370 5090,5380 0,4000 -1200,5360 -5090,5360 -3900,0 -5100,-1360 -5100,-5360 0,-4010 1430,-5380 5100,-5380zm-74940 11350c24660,0 31400,-6790 31400,-35980 0,-29190 -11340,-36790 -31400,-36790 -14060,0 -21790,5750 -25530,14470 -1060,2470 -1450,7020 1880,8840 3330,1820 7210,-470 8280,-2370 3160,-5600 6330,-9160 15410,-9160 12770,0 20000,5930 20000,25010 0,19070 -5030,25000 -19990,25000 -14960,0 -20010,-7320 -20010,-20010l20000 0 0 -9990 -19820 0 -8540 0c-1120,0 -2510,710 -2510,2160 0,28160 6170,38820 30830,38820zm50040 -6030l0 -60360c0,-4010 -1420,-5380 -5090,-5380 -3670,0 -5100,1370 -5100,5380l0 60360c0,3990 1210,5370 5100,5370 3890,0 5090,-1370 5090,-5370zm-5090 -85320c3670,0 5090,1370 5090,5370 0,4010 -1200,5370 -5090,5370 -3890,0 -5100,-1360 -5100,-5370 0,-4000 1430,-5370 5100,-5370z"/>
  </g>
 </g>
</svg>
