<?xml version="1.0" encoding="UTF-8"?>
<!DOCTYPE svg PUBLIC "-//W3C//DTD SVG 1.1//EN" "http://www.w3.org/Graphics/SVG/1.1/DTD/svg11.dtd">
<!-- Creator: CorelDRAW 2018 (64 Bit) -->
<svg xmlns="http://www.w3.org/2000/svg" xml:space="preserve" width="65px" height="36px" version="1.1" style="shape-rendering:geometricPrecision; text-rendering:geometricPrecision; image-rendering:optimizeQuality; fill-rule:evenodd; clip-rule:evenodd"
viewBox="0 0 650000 359990"
 xmlns:xlink="http://www.w3.org/1999/xlink">
 <defs>
  <style type="text/css">
   <![CDATA[
    .fil1 {fill:#1E876E}
    .fil0 {fill:#64FAD7}
    .fil2 {fill:white}
   ]]>
  </style>
 </defs>
 <g id="Capa_x0020_1">
  <metadata id="CorelCorpID_0Corel-Layer"/>
  <g id="_5b">
   <path class="fil0" d="M325000 360000c179490,0 325000,-80590 325000,-180000 0,-99420 -145510,-180000 -325000,-180000 -179490,0 -325000,80580 -325000,180000 0,99410 145510,180000 325000,180000z"/>
   <path class="fil1" d="M540010 194390l-50630 -3170c-5280,-330 -9370,-4690 -9370,-9980l0 -22490c0,-5290 4090,-9650 9370,-9980l50630 -3170 0 -10610c0,-5500 4490,-9990 9990,-9990l10010 0c3020,0 5620,1200 7580,3490l30010 35000c3230,3770 3230,9240 0,13010l-30010 35000c-1960,2290 -4560,3490 -7580,3490l-10010 0c-5500,0 -9990,-4490 -9990,-9990l0 -10610zm-430010 0l0 10610c0,5500 -4490,9990 -9990,9990l-10000 0c-3030,0 -5630,-1200 -7590,-3490l-30010 -35000c-3230,-3770 -3230,-9240 0,-13010l30010 -35000c1960,-2290 4560,-3490 7590,-3490l10000 0c5500,0 9990,4490 9990,9990l0 10610 50630 3170c5280,330 9370,4690 9370,9980l0 22490c0,5290 -4090,9650 -9370,9980l-50630 3170zm80010 15610l0 -40000c0,-2750 990,-5120 2930,-7070l90000 -90000c1950,-1950 4320,-2930 7070,-2930l177820 0c5510,0 10000,4490 10000,10000l0 40000c0,15670 -13620,29410 -24050,39840l-32700 32710c-20460,20450 -41900,27450 -70590,27450 -50160,0 -100320,0 -150480,0 -5510,0 -10000,-4490 -10000,-10000zm0 20000l270000 0 0 59990 -270000 0 0 -59990z"/>
   <path class="fil2" d="M200010 210000c0,0 110630,0 150480,0 27160,0 45640,-6640 63520,-24520l32710 -32710c9070,-9080 21110,-21170 21110,-32770l0 -40000 -177820 0 -90000 90000 0 40000zm180000 30000l10000 0 0 40000 -10000 0 0 -40000zm-20000 0l10000 0 0 40000 -10000 0 0 -40000zm-30000 0l20000 0 0 40000 -20000 0 0 -40000zm-20000 0l10000 0 0 40000 -10000 0 0 -40000zm-30000 0l20000 0 0 40000 -20000 0 0 -40000zm-30000 0l10000 0 0 40000 -10000 0 0 -40000zm-20000 0l10000 0 0 40000 -10000 0 0 -40000zm-30000 0l20000 0 0 40000 -20000 0 0 -40000zm200000 0l50000 0 0 40000 -50000 0 0 -40000zm-300000 -55010l0 20010 -10000 0 -30010 -35000 30010 -35010 10000 0 0 20010 60000 3750 0 22490 -60000 3750zm449990 0l0 20010 10010 0 30000 -35000 -30000 -35010 -10010 0 0 20010 -60000 3750 0 22490 60000 3750zm-209990 15010l10480 0c23340,0 39790,-4940 56450,-21590l32710 -32710c5360,-5370 18180,-17800 18180,-25700l0 -30000 -10010 0 0 10000 0 20000c-730,4160 -11980,15360 -15250,18620l-24970 24970c-9620,9630 -23300,16410 -43860,16410l-23730 0 0 20000zm-130000 0l0 -20000 100000 0 0 -10000 -90000 0 20000 -20000 50000 0 40000 -40000 50000 0 -50000 50000 0 40000 -120000 0zm150790 -115000c30110,0 68020,1770 69460,22380 2030,29300 -57020,51720 -80860,47370l54760 -54750 -78290 0 -40000 40000 -16970 0c-7530,0 -11510,-13970 -3470,-22010 24530,-24530 65250,-32990 95370,-32990z"/>
  </g>
 </g>
</svg>
